<svg width="17" height="16" viewBox="0 0 17 16" fill="none" xmlns="http://www.w3.org/2000/svg">
<path d="M8.63293 7.86681L7.69291 8.80681C7.17291 9.32681 7.17291 10.1735 7.69291 10.6935C8.21291 11.2135 9.05959 11.2135 9.57959 10.6935L11.0596 9.21349C12.0996 8.17349 12.0996 6.48682 11.0596 5.44016C10.0196 4.40016 8.33292 4.40016 7.28625 5.44016L5.67293 7.05348C4.7796 7.94681 4.7796 9.39348 5.67293 10.2868" stroke="#2364AA" stroke-width="1.5" stroke-linecap="round" stroke-linejoin="round"/>
<path d="M8.49967 14.6673C12.1816 14.6673 15.1663 11.6825 15.1663 8.00065C15.1663 4.31875 12.1816 1.33398 8.49967 1.33398C4.81778 1.33398 1.83301 4.31875 1.83301 8.00065C1.83301 11.6825 4.81778 14.6673 8.49967 14.6673Z" stroke="#2364AA" stroke-width="1.5" stroke-linecap="round" stroke-linejoin="round"/>
</svg>
