<svg width="24" height="16" viewBox="0 0 24 16" fill="none" xmlns="http://www.w3.org/2000/svg">
<path d="M10.6636 10.2465C10.8054 10.371 10.9809 10.4318 11.1564 10.4318C11.3656 10.4318 11.5734 10.3448 11.7219 10.1745L18.1771 2.77654C18.4494 2.46454 18.4171 1.99054 18.1051 1.71829C17.7939 1.44604 17.3206 1.47754 17.0469 1.79029L10.5916 9.18829C10.3186 9.50029 10.3509 9.97429 10.6636 10.2465Z" fill="white"/>
<path d="M22.033 1.14044L11.479 13.2357L6.37747 7.57244C6.09922 7.26494 5.62522 7.23944 5.31772 7.51694C5.01022 7.79444 4.98547 8.26844 5.26222 8.57669L8.23897 11.8812L7.05997 13.2349L1.95997 7.57319C1.68172 7.26569 1.20772 7.24019 0.90022 7.51769C0.59272 7.79519 0.56797 8.26919 0.84472 8.57744L6.51172 14.8677C6.65422 15.0252 6.85672 15.1159 7.06897 15.1159H7.07497C7.28947 15.1144 7.49347 15.0207 7.63447 14.8587L9.24997 13.0039L10.93 14.8684C11.0725 15.0259 11.275 15.1167 11.4872 15.1167H11.4932C11.7077 15.1152 11.9117 15.0214 12.0527 14.8594L23.1632 2.12594C23.4355 1.81394 23.4032 1.34069 23.0912 1.06769C22.78 0.796942 22.306 0.828442 22.033 1.14044Z" fill="white"/>
</svg>
