<svg width="242" height="128" viewBox="0 0 242 128" fill="none" xmlns="http://www.w3.org/2000/svg">
<g clip-path="url(#clip0_2765_21333)">
<path d="M241.485 93.3027C240.218 101.419 236.29 109.297 229.809 114.282C223.43 119.191 215.258 120.936 207.369 122.435C197.907 124.236 188.419 125.882 178.905 127.373C177.556 127.59 176.207 127.799 174.856 128.001H119.442C119.386 127.926 119.327 127.847 119.271 127.769C119.181 127.637 119.09 127.505 119.003 127.373C118.953 127.298 118.903 127.22 118.854 127.141H153.612C154.598 127.14 155.544 126.746 156.242 126.043C156.939 125.341 157.332 124.389 157.334 123.395V76.6627C157.558 75.9537 157.767 75.2415 157.957 74.52C158.843 71.16 159.42 67.7247 159.679 64.258C159.866 61.8423 159.922 59.4266 159.881 57.0077C159.766 50.3599 158.903 43.712 157.966 37.1112C157.897 36.6249 157.826 36.1355 157.757 35.6492C157.097 31.0625 156.496 26.0711 158.791 22.0523C161.417 17.4531 167.244 15.5362 172.492 16.0068C181.932 16.857 189.884 24.1386 194.017 32.7316C198.147 41.3214 199.072 51.0908 199.448 60.6281C199.648 65.6854 199.626 70.9686 198.925 76.0415C201.292 70.589 203.661 65.1364 206.033 59.6838C207.297 56.7756 208.627 53.7732 210.969 51.6461C215.865 47.1944 223.963 48.0916 229.192 52.145C234.419 56.2015 237.284 62.6109 239.19 68.9701C241.551 76.8352 242.756 85.1866 241.485 93.3027Z" fill="white"/>
<path d="M220.601 49.2179C224.025 55.3256 225.596 62.3292 225.558 69.3183C225.505 76.2476 223.983 83.0857 221.095 89.3747C218.482 95.0533 214.841 100.192 210.36 104.527C205.937 108.853 200.689 112.23 194.933 114.454C188.254 116.975 181.031 117.666 174 116.457C173.023 116.288 172.054 116.083 171.091 115.842C170.508 115.698 170.258 116.605 170.843 116.75C178.159 118.577 185.832 118.354 193.032 116.107C199.028 114.164 204.561 110.993 209.284 106.794C214.065 102.583 218.019 97.5056 220.94 91.8252C224.137 85.6061 226.002 78.7804 226.414 71.7895C226.822 64.6957 225.642 57.4754 222.596 51.0404C222.227 50.2606 221.831 49.4948 221.408 48.7429C221.343 48.6397 221.241 48.5658 221.124 48.5369C221.006 48.5079 220.882 48.5262 220.777 48.5878C220.672 48.6494 220.596 48.7496 220.563 48.8671C220.53 48.9847 220.544 49.1105 220.601 49.2179Z" fill="#E2E5E9"/>
<path d="M171.016 15.8799C174.812 22.9284 177.77 30.403 179.829 38.149C183.951 53.6631 184.572 69.9102 181.645 85.6975C180.185 93.5852 177.802 101.271 174.548 108.595C171.303 115.857 166.631 123.508 158.651 126.051C157.75 126.336 156.827 126.544 155.891 126.672C155.298 126.754 155.551 127.661 156.14 127.579C164.395 126.438 170.131 119.53 173.728 112.488C177.45 105.202 180.101 97.2894 181.863 89.3009C185.356 73.3613 185.231 56.8328 181.496 40.9489C179.64 33.0361 176.867 25.3706 173.233 18.1106C172.777 17.2014 172.306 16.2995 171.822 15.4049C171.535 14.8726 170.728 15.3471 171.016 15.8799Z" fill="#E2E5E9"/>
<path d="M120.288 64.2556L118.842 63.6878H96.2432C96.2133 63.8755 96.2018 64.0657 96.209 64.2556H93.1194L93.1568 64.3152H120.437L120.288 64.2556ZM120.288 64.2556H93.1194L93.1568 64.3152H120.437L120.288 64.2556ZM120.288 64.2556H93.1194L93.1568 64.3152H120.437L120.288 64.2556ZM120.437 64.3152L120.288 64.2556H93.1194L93.1568 64.3152H120.437ZM65.9295 127.139C64.9437 127.137 63.9987 126.742 63.3017 126.04C62.6046 125.338 62.2123 124.386 62.2108 123.393V50.8062C62.2116 49.8127 62.6036 48.8601 63.3007 48.1573C63.9979 47.4545 64.9432 47.0588 65.9295 47.0571H71.7257V46.4297H65.9295C64.7782 46.4319 63.6747 46.8938 62.8608 47.7141C62.047 48.5345 61.5892 49.6464 61.5879 50.8062V123.393C61.5889 124.232 61.8293 125.053 62.2804 125.758C62.7315 126.464 63.3744 127.024 64.1324 127.371H119.004C118.955 127.296 118.905 127.217 118.855 127.139H65.9295ZM156.762 65.0556C156.357 64.6233 155.869 64.279 155.328 64.0437C154.786 63.8085 154.203 63.6874 153.613 63.6878H93.5025L90.1389 58.298L90.0578 58.1662L87.205 53.5952L84.0094 48.4752C83.6177 47.8497 83.0754 47.3342 82.4329 46.9766C81.7903 46.6189 81.0684 46.4308 80.3343 46.4297H65.9295C64.7782 46.4319 63.6747 46.8938 62.8608 47.7141C62.047 48.5345 61.5892 49.6464 61.5879 50.8062V123.393C61.5889 124.232 61.8293 125.053 62.2804 125.758C62.7315 126.464 63.3744 127.024 64.1324 127.371C64.696 127.633 65.3092 127.767 65.9295 127.766H153.613C154.235 127.767 154.849 127.633 155.413 127.371C156.171 127.023 156.814 126.464 157.265 125.758C157.717 125.053 157.957 124.232 157.958 123.393V68.0643C157.959 66.9437 157.53 65.866 156.762 65.0556ZM157.335 123.393C157.333 124.387 156.941 125.339 156.243 126.041C155.545 126.743 154.599 127.138 153.613 127.139H65.9295C64.9437 127.137 63.9987 126.742 63.3017 126.04C62.6046 125.338 62.2123 124.386 62.2108 123.393V50.8062C62.2116 49.8127 62.6036 48.8601 63.3007 48.1573C63.9979 47.4545 64.9432 47.0588 65.9295 47.0571H80.3343C80.9639 47.0554 81.5836 47.2156 82.1346 47.5225C82.6856 47.8294 83.1497 48.2728 83.483 48.8109L86.4668 53.5952L89.3198 58.1662L89.8554 59.0258L93.1194 64.2556L93.1568 64.3152L153.613 64.3152C154.6 64.3161 155.546 64.7113 156.244 65.4142C156.942 66.1171 157.334 67.0702 157.335 68.0643V123.393ZM120.288 64.2556H93.1194L93.1568 64.3152H120.437L120.288 64.2556ZM120.288 64.2556H93.1194L93.1568 64.3152H120.437L120.288 64.2556ZM120.288 64.2556H93.1194L93.1568 64.3152H120.437L120.288 64.2556ZM120.288 64.2556L118.842 63.6878H93.5025L90.1389 58.298L89.8554 59.0258L93.1194 64.2556L93.1568 64.3152H120.437L120.288 64.2556Z" fill="#3F3D56"/>
<path d="M48.8768 90.2827L47.0928 94.0399L31.8574 88.8967L34.4901 83.3516L48.8768 90.2827Z" fill="#FFB8B8"/>
<path d="M44.5865 96.5563L48.1927 88.9617L52.7218 91.1437L47.115 102.952L46.7687 102.785C45.6594 102.25 44.8062 101.294 44.397 100.126C43.9878 98.9577 44.0559 97.6737 44.5865 96.5563Z" fill="#2F2E41"/>
<path d="M52.4663 123.835L48.3343 123.694L48.1602 107.492L53.0042 107.78L52.4663 123.835Z" fill="#FFB8B8"/>
<path d="M45.0402 122.392L53.393 122.676L53.2237 127.73L40.2369 127.289L40.2498 126.902C40.2913 125.664 40.8193 124.494 41.7177 123.648C42.616 122.802 43.8112 122.35 45.0402 122.392Z" fill="#2F2E41"/>
<path d="M59.1214 56.0268C59.1214 56.0268 46.4748 52.7997 40.7417 57.5555L37.5379 66.8973L24.7227 85.2413L43.271 96.4515L46.6434 87.9589L38.5496 83.8825L48.3296 75.3899L46.6434 120.231L53.051 121.25C53.051 121.25 67.2152 65.8782 59.1214 56.0268Z" fill="#2F2E41"/>
<path d="M39.9355 58.9359L40.0897 58.6599C41.7145 55.7502 41.4512 51.012 40.9443 47.5496C40.5197 44.6495 40.5325 39.5387 40.6179 35.7618C40.639 34.487 41.0904 33.2574 41.8977 32.2754C42.7051 31.2934 43.8202 30.6176 45.0597 30.3591C48.907 29.5526 53.6301 29.3818 56.1031 29.3516C56.775 29.3489 57.4212 29.6116 57.9031 30.0833C58.3849 30.555 58.664 31.1982 58.6805 31.8748C58.7557 35.942 58.7324 43.3587 57.7304 47.3379C56.2432 53.2439 58.5687 57.2573 58.5924 57.2971L58.7327 57.5333L39.9355 58.9359Z" fill="#C3E3F3"/>
<path d="M33.4294 75.2247C33.841 75.0261 34.2045 74.739 34.4941 74.3836C34.7837 74.0283 34.9924 73.6132 35.1056 73.1678C35.2187 72.7224 35.2336 72.2574 35.149 71.8055C35.0644 71.3537 34.8826 70.9261 34.6162 70.5527L41.7534 39.5508H36.3575L30.0585 69.9416C29.4655 70.434 29.0724 71.1284 28.9537 71.8932C28.835 72.658 28.9989 73.4401 29.4144 74.0913C29.8299 74.7425 30.4681 75.2176 31.2081 75.4265C31.9481 75.6353 32.7384 75.5636 33.4294 75.2247Z" fill="#FFB8B8"/>
<path d="M76.8277 44.7085L64.9169 33.3594L61.6978 37.899L69.7456 45.0328L59.1913 53.4753C59.1151 53.4701 59.0392 53.4636 58.9615 53.4636C58.312 53.463 57.6761 53.6508 57.1299 54.0047C56.5836 54.3586 56.1502 54.8635 55.8813 55.459C55.6125 56.0545 55.5196 56.7155 55.6139 57.3627C55.7083 58.01 55.9857 58.6162 56.4131 59.1088C56.8404 59.6014 57.3997 59.9596 58.0238 60.1404C58.648 60.3213 59.3107 60.3172 59.9326 60.1286C60.5545 59.94 61.1093 59.575 61.5306 59.0771C61.9519 58.5792 62.2219 57.9696 62.3083 57.3212L62.3416 57.3548L76.8277 44.7085Z" fill="#FFB8B8"/>
<path d="M44.3018 30.758C44.3018 30.758 36.864 29.5291 36.1895 35.3041C35.515 41.079 35.1777 41.079 35.1777 41.079C35.1777 41.079 40.5736 40.0599 41.9226 41.4187C43.2716 42.7775 44.3018 30.758 44.3018 30.758Z" fill="#C3E3F3"/>
<path d="M55.4121 29.8669C55.4121 29.8669 61.4825 28.8478 64.1804 31.5654C66.8783 34.283 68.2273 34.9624 68.2273 34.9624C68.2273 34.9624 62.1569 38.3594 64.5176 41.4168C64.5176 41.4168 58.11 38.3594 57.0983 39.3786C56.0866 40.3977 55.4121 29.8669 55.4121 29.8669Z" fill="#C3E3F3"/>
<path d="M50.0882 10.1454C48.1734 8.605 47.6703 5.63204 48.7813 3.43188C49.8922 1.23172 52.404 -0.0938077 54.8526 0.00518243C57.3011 0.104173 59.6083 1.5202 61.0269 3.53298C63.0195 6.36041 63.4377 10.2901 66.0873 12.5037C68.4805 14.503 71.9089 14.4457 75.014 14.2867C76.0608 14.233 77.1413 14.1709 78.0806 13.7024C79.0198 13.234 79.7872 12.246 79.6661 11.1974C80.4462 12.4413 79.9936 14.1853 78.947 15.2116C77.9004 16.238 76.4102 16.668 74.9595 16.8392C72.4001 17.1101 69.8148 16.7049 67.4582 15.6634C65.1016 14.6219 63.0549 12.98 61.5198 10.8994C60.4394 9.39809 59.6056 7.64986 58.1231 6.55067C56.6406 5.45148 54.1687 5.37496 53.2586 6.98674C52.8084 7.78392 52.8526 8.78386 52.4387 9.60069C52.0247 10.4175 50.6805 10.858 50.2819 10.0334" fill="#2F2E41"/>
<path d="M49.7948 26.5267C54.9551 26.5267 59.1384 22.3129 59.1384 17.1149C59.1384 11.9169 54.9551 7.70312 49.7948 7.70312C44.6345 7.70312 40.4512 11.9169 40.4512 17.1149C40.4512 22.3129 44.6345 26.5267 49.7948 26.5267Z" fill="#2F2E41"/>
<path d="M49.7395 27.2625C53.9643 27.2625 57.3891 23.8126 57.3891 19.557C57.3891 15.3014 53.9643 11.8516 49.7395 11.8516C45.5147 11.8516 42.0898 15.3014 42.0898 19.557C42.0898 23.8126 45.5147 27.2625 49.7395 27.2625Z" fill="#FFB8B8"/>
<path d="M42.7637 13.9008C43.8033 14.1298 43.4631 15.8865 44.2846 16.568C45.0257 17.1826 46.0929 16.5505 47.0256 16.3217C48.2032 16.0327 49.4357 16.456 50.5228 16.9955C51.61 17.5351 52.6583 18.2047 53.8443 18.4561C55.0303 18.7074 56.4364 18.4241 57.1012 17.4034C57.7369 16.4274 57.5029 15.1113 57.0056 14.057C56.3872 12.7461 55.4168 11.6358 54.2041 10.8519C52.9915 10.0681 51.5852 9.64195 50.1445 9.62184C48.7038 9.60173 47.2862 9.98843 46.0525 10.7381C44.8188 11.4878 43.8181 12.5706 43.1639 13.8637" fill="#2F2E41"/>
<path d="M242 127.5C242 127.632 241.964 127.759 241.901 127.853C241.837 127.947 241.752 128 241.662 128H0.337989C0.248349 128 0.16238 127.947 0.0989944 127.854C0.0356092 127.76 0 127.633 0 127.5C0 127.367 0.0356092 127.24 0.0989944 127.146C0.16238 127.053 0.248349 127 0.337989 127H241.662C241.752 127 241.837 127.053 241.901 127.147C241.964 127.241 242 127.368 242 127.5Z" fill="#3F3D56"/>
</g>
<defs>
<clipPath id="clip0_2765_21333">
<rect width="242" height="128" fill="white"/>
</clipPath>
</defs>
</svg>
