<svg width="242" height="194" viewBox="0 0 242 194" fill="none" xmlns="http://www.w3.org/2000/svg">
<g clip-path="url(#clip0_2024_51786)">
<path d="M168.514 188.827L164.034 188.827L161.903 171.604H168.514L168.514 188.827Z" fill="#FFB6B6"/>
<path d="M168.394 187.368L163.611 185.429L163.474 185.373L160.834 187.368C159.343 187.369 157.913 187.959 156.859 189.01C155.805 190.061 155.212 191.486 155.212 192.973V193.155H169.655V187.368H168.394Z" fill="#2F2E41"/>
<path d="M208.988 183.021L204.979 185.013L195.365 170.545L201.282 167.605L208.988 183.021Z" fill="#FFB6B6"/>
<path d="M209.36 181.207L208.334 181.715L208.229 181.767L203.088 182.163L202.933 182.173L201.462 185.131C200.801 185.459 200.212 185.914 199.728 186.47C199.243 187.025 198.873 187.67 198.639 188.368C198.405 189.066 198.311 189.803 198.363 190.537C198.415 191.271 198.611 191.988 198.941 192.647L199.022 192.808L211.948 186.388L209.36 181.207Z" fill="#2F2E41"/>
<path d="M165.476 96.25L190.176 97.1118L190.348 96.8625C190.348 96.8625 192.455 101.763 192.455 105.964C192.455 107.36 191.481 116.495 191.976 118.223C192.038 118.438 191.614 118.965 191.753 119.966C191.843 120.615 192.341 120.116 192.455 121.016C192.537 121.662 191.661 122.019 191.753 122.766C191.853 123.583 193.058 126.228 193.166 127.136C194.321 136.807 195.859 150.816 195.859 150.816C195.859 150.816 202.034 167.305 203.341 167.573C205.534 168.022 207.014 171.997 205.799 172.824C205.22 173.217 197.742 175.865 197.742 175.865C197.331 175.939 196.045 175.296 196.864 173.777C197.015 173.497 196.116 174.209 195.967 173.874C195.808 173.518 196.12 172.1 195.938 171.705C194.303 168.154 191.794 163.234 189.416 160.707C185.903 156.974 183.678 152.22 183.066 147.137L177.611 116.989L175.742 125.443L174.195 126.967L174.62 130.52L174.546 133.968L170.684 148.32C170.684 148.32 170.104 175.123 171.035 175.974C171.539 176.435 173.677 182.113 169.63 182.625L162.278 182.06C162.278 182.06 161.287 179.979 161.782 179.238C162.278 178.497 162.248 178.699 161.644 177.487C161.039 176.275 161.287 174.221 161.287 174.221C160.324 164.569 159.944 154.867 160.149 145.17C160.518 129.241 162.751 110.943 162.751 110.57C162.77 110.189 162.7 109.808 162.546 109.459V108.454L163.494 104.891L165.476 96.25Z" fill="#2F2E41"/>
<path d="M200.235 99.2614C205.622 99.2614 209.99 94.9076 209.99 89.5369C209.99 84.1663 205.622 79.8125 200.235 79.8125C194.847 79.8125 190.48 84.1663 190.48 89.5369C190.48 94.9076 194.847 99.2614 200.235 99.2614Z" fill="#C3E3F3"/>
<path d="M198.904 94.5978C198.736 94.5978 198.57 94.5587 198.419 94.4836C198.268 94.4085 198.137 94.2994 198.036 94.1651L195.375 90.6277C195.289 90.5141 195.227 90.3847 195.192 90.2471C195.157 90.1095 195.149 89.9663 195.169 89.8257C195.189 89.6851 195.237 89.5498 195.309 89.4276C195.382 89.3053 195.478 89.1986 195.592 89.1134C195.706 89.0281 195.836 88.9661 195.974 88.9309C196.112 88.8956 196.255 88.8878 196.397 88.9079C196.538 88.928 196.673 88.9756 196.796 89.048C196.919 89.1204 197.026 89.2161 197.111 89.3297L198.852 91.6438L203.324 84.9571C203.403 84.8388 203.505 84.7371 203.623 84.658C203.742 84.5788 203.874 84.5237 204.014 84.4957C204.154 84.4678 204.298 84.4676 204.438 84.4951C204.578 84.5227 204.711 84.5774 204.829 84.6563C204.948 84.7351 205.05 84.8365 205.129 84.9546C205.209 85.0727 205.264 85.2053 205.292 85.3447C205.32 85.4841 205.32 85.6276 205.292 85.767C205.264 85.9064 205.209 86.039 205.13 86.1572L199.807 94.1161C199.711 94.26 199.581 94.3789 199.43 94.4626C199.278 94.5464 199.108 94.5926 198.934 94.5975C198.924 94.5977 198.914 94.5978 198.904 94.5978Z" fill="white"/>
<path d="M205.059 99.8172C205.154 99.4195 205.16 99.0059 205.078 98.6055C204.995 98.2051 204.825 97.8276 204.581 97.4997C204.336 97.1717 204.022 96.9012 203.661 96.7073C203.3 96.5134 202.9 96.4007 202.491 96.3772L197.493 79.4004L194.111 83.3122L199.491 99.2077C199.497 99.8959 199.756 100.558 200.219 101.069C200.682 101.579 201.317 101.903 202.003 101.978C202.69 102.053 203.38 101.874 203.943 101.476C204.506 101.078 204.903 100.488 205.059 99.8172Z" fill="#FFB8B8"/>
<path d="M201.532 91.5349L200.883 89.1615L201.627 87.7438L201.571 87.5793L201.346 86.9422L200.18 86.011L200.598 84.8244L199.123 80.6483L198.762 79.9236L190.295 62.9777L188.266 58.9136L187.795 58.1784L186.331 55.8891L184.329 52.7631C184.011 52.2635 183.596 51.832 183.109 51.4936C182.622 51.1553 182.072 50.9169 181.492 50.7924C181.305 50.7512 181.114 50.722 180.923 50.7049L180.786 50.6943C180.444 50.6755 180.102 50.6955 179.764 50.7539H179.757C179.163 50.8566 178.596 51.0807 178.093 51.412C177.697 51.6677 177.343 51.9843 177.047 52.3501C176.363 53.1954 176.008 54.2579 176.046 55.343L176.109 57.0513L176.172 58.6055L179.143 63.9613L179.336 64.3114L179.34 64.3219L188.48 80.8093L191.237 85.78L191.654 86.5361L193.508 87.7613L193.013 88.9935L193.157 90.9118L194.734 92.0984L197.02 94.4123L197.111 94.6013L197.814 94.2478L197.88 94.2128L198.038 94.1672L200.212 93.5126L201.532 93.1171L201.574 93.1031L201.936 93.0121L201.532 91.5349Z" fill="#E6E6E6"/>
<path d="M239.109 168.601C238.447 167.762 237.548 167.139 236.528 166.814C235.507 166.489 234.413 166.476 233.385 166.777L233.16 166.844L231.145 174.688C230.843 173.519 230.197 170.88 229.789 168.296L229.754 168.083L229.554 168.17C227.447 169.099 225.466 170.289 223.658 171.713C220.456 174.274 217.851 177.499 216.025 181.165C214.199 184.831 213.196 188.849 213.085 192.94L213.082 193.09L213.078 193.185L213.345 193.09L219.072 191.05C221.608 191.272 224.162 190.928 226.547 190.041C228.932 189.155 231.088 187.748 232.858 185.925C235.173 183.492 236.76 180.363 238.294 177.335C238.744 176.453 239.204 175.542 239.674 174.667C240.199 173.716 240.426 172.629 240.325 171.548C240.224 170.466 239.801 169.44 239.109 168.601Z" fill="#F2F2F2"/>
<path d="M92.1369 38.3792H91.4346V11.4102H142.231V12.1103H92.1369V38.3792Z" fill="#3F3D56"/>
<path d="M150.02 19.4489C155.408 19.4489 159.775 15.0951 159.775 9.72443C159.775 4.35378 155.408 0 150.02 0C144.633 0 140.265 4.35378 140.265 9.72443C140.265 15.0951 144.633 19.4489 150.02 19.4489Z" fill="#C3E3F3"/>
<path d="M148.69 14.7853C148.521 14.7853 148.355 14.7462 148.204 14.6711C148.054 14.596 147.923 14.4869 147.822 14.3526L145.16 10.8152C145.075 10.7016 145.013 10.5722 144.977 10.4346C144.942 10.297 144.934 10.1538 144.954 10.0132C144.974 9.87259 145.022 9.7373 145.095 9.61508C145.167 9.49285 145.263 9.38607 145.377 9.30085C145.491 9.21562 145.621 9.15361 145.759 9.11837C145.897 9.08312 146.041 9.07531 146.182 9.09541C146.323 9.1155 146.459 9.1631 146.581 9.23548C146.704 9.30785 146.811 9.4036 146.897 9.51724L148.638 11.8313L153.109 5.14462C153.188 5.02628 153.29 4.92462 153.408 4.84545C153.527 4.76628 153.66 4.71115 153.8 4.68321C153.939 4.65527 154.083 4.65507 154.223 4.68263C154.363 4.71018 154.496 4.76494 154.615 4.84379C154.733 4.92263 154.835 5.02401 154.915 5.14213C154.994 5.26024 155.049 5.39279 155.077 5.53217C155.105 5.67156 155.105 5.81507 155.077 5.95448C155.05 6.0939 154.994 6.22649 154.915 6.34469L149.593 14.3036C149.496 14.4475 149.367 14.5664 149.215 14.6501C149.063 14.7339 148.893 14.7801 148.72 14.785C148.71 14.7851 148.7 14.7853 148.69 14.7853Z" fill="white"/>
<path d="M57.724 103.855H57.0217V130.824H107.818V130.124H57.724V103.855Z" fill="#3F3D56"/>
<path d="M115.608 140.566C120.995 140.566 125.363 136.212 125.363 130.842C125.363 125.471 120.995 121.117 115.608 121.117C110.22 121.117 105.853 125.471 105.853 130.842C105.853 136.212 110.22 140.566 115.608 140.566Z" fill="#C3E3F3"/>
<path d="M114.277 135.903C114.108 135.903 113.942 135.863 113.792 135.788C113.641 135.713 113.51 135.604 113.409 135.47L110.748 131.932C110.662 131.819 110.6 131.689 110.564 131.552C110.529 131.414 110.521 131.271 110.541 131.13C110.562 130.99 110.609 130.854 110.682 130.732C110.755 130.61 110.851 130.503 110.965 130.418C111.079 130.333 111.208 130.271 111.346 130.236C111.484 130.2 111.628 130.193 111.769 130.213C111.91 130.233 112.046 130.28 112.168 130.353C112.291 130.425 112.398 130.521 112.484 130.634L114.225 132.948L118.697 126.262C118.776 126.143 118.877 126.042 118.996 125.963C119.114 125.883 119.247 125.828 119.387 125.8C119.527 125.772 119.671 125.772 119.81 125.8C119.95 125.827 120.083 125.882 120.202 125.961C120.321 126.04 120.423 126.141 120.502 126.259C120.581 126.377 120.636 126.51 120.664 126.649C120.692 126.789 120.692 126.932 120.664 127.072C120.637 127.211 120.582 127.344 120.502 127.462L115.18 135.421C115.084 135.565 114.954 135.684 114.802 135.767C114.65 135.851 114.48 135.897 114.307 135.902C114.297 135.902 114.287 135.903 114.277 135.903Z" fill="white"/>
<path d="M192.806 104.848C192.817 105.585 192.698 106.318 192.455 107.014L192.403 107.004C186.166 108.079 180.602 108.255 178.029 104.439C174.671 100.177 170.052 100.225 164.9 102.096L164.289 101.438L163.25 100.322L164.205 99.2434L163.25 97.1641L164.047 94.5982L165.065 94.4126L164.792 92.2038L164.363 90.9121L165.62 89.5364L166.688 86.1024L165.919 78.9159C164.866 69.0651 166.905 59.1315 171.755 50.4847L174.673 47.8733L175.884 46.7881L177.51 43.7637L179.227 43.9632L183.877 44.4988L184.035 44.8768L185.176 47.6212L191.188 54.0587L190.917 56.7751L190.798 57.9723L190.71 58.8334L190.296 62.978L188.607 79.91L188.48 80.8096L187.121 90.5446C189.33 92.6729 191.282 96.772 192.22 100.518C192.325 100.934 192.027 101.358 192.104 101.764C192.213 102.338 192.687 102.884 192.74 103.419C192.789 103.894 192.811 104.371 192.806 104.848Z" fill="#E6E6E6"/>
<path d="M180.899 42.6778C185.359 42.6778 188.974 39.0738 188.974 34.628C188.974 30.1822 185.359 26.5781 180.899 26.5781C176.44 26.5781 172.824 30.1822 172.824 34.628C172.824 39.0738 176.44 42.6778 180.899 42.6778Z" fill="#FFB6B6"/>
<path d="M190.634 32.4336C190.156 30.9483 188.845 29.6916 187.289 29.5274C187.406 28.5409 187.251 27.541 186.838 26.6367C186.425 25.7324 185.772 24.9583 184.948 24.3986C184.125 23.839 183.163 23.5152 182.168 23.4627C181.173 23.4101 180.182 23.6308 179.304 24.1006C179.118 23.8771 178.876 23.7054 178.604 23.6021C178.331 23.4989 178.036 23.4675 177.748 23.5111C177.172 23.6058 176.628 23.8432 176.167 24.2014C175.023 25.0356 174.128 26.1633 173.576 27.4647C173.024 28.766 172.836 30.1922 173.032 31.5915C173.029 30.8817 173.344 32.255 174.249 32.3764C175.002 32.5275 175.72 32.8225 176.361 33.2452C177.003 33.6678 177.718 33.9666 178.47 34.1263C179.229 34.2369 179.425 37.2697 178.883 39.2231C178.78 39.5932 178.728 40.0899 179.07 40.2663C179.492 40.4836 179.918 39.9374 180.389 39.8841C180.601 39.8808 180.805 39.9595 180.96 40.1036C181.114 40.2477 181.207 40.446 181.217 40.6566C181.218 40.8679 181.168 41.0763 181.071 41.2644C180.974 41.4525 180.834 41.6149 180.662 41.738C180.315 41.9807 179.931 42.1659 179.525 42.2867L179.661 42.4793C179.781 42.6996 179.973 42.8717 180.205 42.9661C180.438 43.0606 180.696 43.0715 180.936 42.997C181.475 43.6463 187.04 41.8434 187.312 40.6583C188.477 39.6116 189.445 38.3652 190.169 36.9782C190.893 35.5759 191.059 33.9527 190.634 32.4336Z" fill="#2F2E41"/>
<path d="M197.164 56.9484C197.052 57.8865 196.17 58.5866 195.243 58.7826C194.772 58.873 194.288 58.8813 193.814 58.8071C193.351 58.7386 192.893 58.6368 192.444 58.5026C191.89 58.3451 191.341 58.1677 190.798 57.9705C189.246 57.4183 187.751 56.7209 186.331 55.8877C185.257 55.263 184.23 54.5634 183.255 53.7944C182.749 53.3953 182.259 52.9788 181.784 52.5447L182.377 52.8248C181.847 52.1142 181.317 51.4035 180.786 50.6929C180.274 50.0068 179.762 49.3207 179.252 48.6346C179.22 48.5926 179.196 48.5646 179.185 48.5506V48.5471C178.95 48.2356 178.718 47.924 178.486 47.6125C177.787 46.6779 177.099 45.3057 177.903 44.462C178.075 44.2977 178.283 44.1763 178.511 44.1075C178.738 44.0388 178.979 44.0247 179.213 44.0665C179.465 44.0991 179.709 44.1774 179.933 44.2975C180.547 44.694 181.068 45.2183 181.46 45.8342C182.008 45.0396 183.072 44.7456 184.034 44.8751C184.087 44.8786 184.136 44.8856 184.185 44.8926C185.186 45.0641 185.618 44.525 186.485 45.0536C186.889 45.2987 187.135 46.5588 187.539 46.8039C187.767 46.9439 188.613 47.1539 188.845 47.2974C189.302 47.5775 189.186 48.6241 189.646 48.9042C189.986 49.1107 190.899 48.5541 191.24 48.7607C191.598 48.9812 192.097 50.4374 192.455 50.6544C193.168 51.092 193.74 50.2939 194.453 50.7279C195.37 51.2915 196.346 51.9181 196.732 52.9193C197.073 53.8014 196.634 55.0091 195.787 55.2611C196.192 55.3092 196.561 55.5122 196.818 55.827C197.075 56.1419 197.199 56.544 197.164 56.9484Z" fill="#E6E6E6"/>
<path opacity="0.2" d="M190.798 57.9714L190.71 58.8325C189.715 58.737 188.735 58.5171 187.795 58.1779C186.558 57.7638 185.484 56.9682 184.73 55.9061C184.252 55.192 183.754 54.4814 183.255 53.7953C182.426 52.6471 181.605 51.576 180.923 50.7043C180.091 49.6507 179.466 48.8876 179.252 48.6355C179.22 48.5935 179.196 48.5655 179.185 48.5515L179.175 48.541L179.185 48.548C183.357 53.8123 187.299 56.8479 190.917 56.7742C190.917 56.7742 191.342 58.1674 190.798 57.9714Z" fill="black"/>
<path d="M152.615 15.8158C152.512 16.2116 152.498 16.625 152.573 17.0269C152.648 17.4288 152.81 17.8095 153.048 18.1421C153.287 18.4748 153.595 18.7513 153.952 18.9521C154.31 19.153 154.707 19.2733 155.115 19.3047L159.783 36.3747L163.24 32.5289L158.17 16.5326C158.177 15.8444 157.931 15.1774 157.478 14.6581C157.025 14.1387 156.397 13.803 155.712 13.7147C155.027 13.6263 154.334 13.7914 153.763 14.1787C153.192 14.5659 152.784 15.1484 152.615 15.8158Z" fill="#FFB8B8"/>
<path d="M180.021 59.4664L179.989 57.9122L177.047 52.3499L176.938 52.1468L176.931 52.1363L174.673 47.8727L163.777 27.2806L162.607 26.8521L162.666 25.1794L162.607 23.3516L161.201 22.4121L160.602 21.2793L159.752 21.5208H159.749L159.724 21.5278L156.009 22.5675H156.006L155.233 23.0015L154.531 25.1019L154.377 26.0962L154.531 27.9023L156.286 28.2523L155.705 30.1042L157.47 35.4319C159.679 44.7433 162.695 52.7804 167.903 57.3696L168.331 58.0697L171.72 63.597C172.182 64.3531 172.859 64.9558 173.664 65.3289C174.47 65.7021 175.368 65.8291 176.246 65.6938H176.249C176.845 65.6016 177.417 65.3896 177.928 65.0707C178.4 64.7807 178.812 64.4042 179.143 63.9611C179.748 63.16 180.068 62.1808 180.052 61.1782L180.021 59.4664Z" fill="#E6E6E6"/>
<path d="M241.582 193.892L146.157 194C146.046 194 145.939 193.956 145.861 193.878C145.783 193.8 145.739 193.694 145.739 193.583C145.739 193.472 145.783 193.366 145.861 193.288C145.939 193.21 146.046 193.166 146.157 193.166L241.582 193.059C241.693 193.059 241.799 193.103 241.878 193.181C241.956 193.259 242 193.365 242 193.475C242 193.586 241.956 193.692 241.878 193.77C241.799 193.848 241.693 193.892 241.582 193.892Z" fill="#CACACA"/>
<path d="M29.3662 53.8067C29.3603 48.5448 31.377 43.4806 35.0016 39.6553L22.5626 22.5884C22.0506 21.8853 21.3926 21.3004 20.6334 20.8736C19.8742 20.4468 19.0316 20.1881 18.1631 20.1151C17.2946 20.0421 16.4205 20.1566 15.6004 20.4507C14.7802 20.7448 14.0333 21.2116 13.4104 21.8194C9.14935 25.9601 5.76651 30.9123 3.4628 36.3817C1.15909 41.8512 -0.0185016 47.7264 -3.01617e-05 53.6584C4.53339e-06 55.8985 0.167533 58.1354 0.501154 60.3507C0.632035 61.2265 0.952988 62.0634 1.44164 62.8028C1.93028 63.5423 2.57487 64.1666 3.33042 64.6322C4.07745 65.0931 4.91635 65.386 5.78861 65.4905C6.66087 65.5949 7.54549 65.5085 8.38078 65.2371L29.8591 58.2801C29.5322 56.8113 29.367 55.3113 29.3662 53.8067Z" fill="#F2F2F2"/>
<path d="M30.5084 60.5684L8.17876 67.801C7.35236 68.0673 6.59304 68.5076 5.95225 69.092C5.31147 69.6764 4.80418 70.3913 4.46478 71.1882C4.12538 71.9852 3.96179 72.8455 3.98509 73.711C4.0084 74.5765 4.21806 75.4268 4.59986 76.2045C7.77979 82.6356 12.4674 88.2083 18.2657 92.4507C24.0641 96.6931 30.8025 99.4803 37.9105 100.576C38.7762 100.709 39.6604 100.653 40.5025 100.413C41.3446 100.173 42.1246 99.7544 42.7891 99.1856C43.4527 98.6184 43.9853 97.9147 44.3503 97.1229C44.7153 96.331 44.9041 95.4698 44.9037 94.5984V73.8079C41.5965 72.9525 38.5523 71.2966 36.0412 68.9871C33.53 66.6775 31.6295 63.7857 30.5084 60.5684Z" fill="#E6E6E6"/>
<path d="M97.6596 73.5577C97.2826 72.6653 96.7172 71.8643 96.0018 71.2092C95.2865 70.5541 94.4381 70.0602 93.5142 69.7612L69.1608 61.873C67.7392 65.2059 65.4641 68.1079 62.5633 70.2883C59.6625 72.4688 56.2379 73.8511 52.6326 74.297V99.5914C52.6331 100.562 52.8441 101.522 53.2512 102.404C53.6583 103.286 54.2519 104.07 54.9913 104.702C55.7306 105.334 56.5983 105.799 57.5349 106.066C58.4714 106.332 59.4547 106.394 60.4174 106.246C68.3299 105.026 75.831 101.923 82.2857 97.2008C88.7403 92.4783 93.9585 86.2749 97.4984 79.1158C97.924 78.2552 98.1587 77.3134 98.1865 76.3543C98.2143 75.3952 98.0346 74.4414 97.6596 73.5577Z" fill="#3F3D56"/>
<path d="M91.609 15.5403C90.9156 14.8637 90.0842 14.3439 89.1712 14.0165C88.2582 13.6891 87.2852 13.5617 86.3183 13.6429C85.3515 13.7242 84.4136 14.0121 83.5684 14.4873C82.7233 14.9624 81.9908 15.6135 81.4208 16.3962L64.771 39.241C66.6864 41.1551 68.2049 43.4265 69.2397 45.9256C70.2745 48.4247 70.8053 51.1025 70.8019 53.8061C70.8019 54.3092 70.7776 54.806 70.7421 55.3L97.208 63.8725C98.1439 64.1736 99.1343 64.2677 100.11 64.1483C101.086 64.0289 102.024 63.6988 102.859 63.181C103.694 62.6632 104.406 61.9701 104.945 61.1501C105.484 60.3302 105.837 59.4029 105.979 58.433C106.351 55.9669 106.537 53.4766 106.537 50.9828C106.558 44.3794 105.247 37.8393 102.683 31.7508C100.118 25.6623 96.3523 20.1497 91.609 15.5403Z" fill="#C3E3F3"/>
<path d="M50.084 33.1522C53.6485 33.1482 57.1531 34.0656 60.2557 35.8148L70.418 21.8714C70.9361 21.1613 71.2934 20.3476 71.4653 19.4864C71.6372 18.6253 71.6196 17.7372 71.4137 16.8835C71.2144 16.0461 70.8352 15.2617 70.3022 14.5846C69.7693 13.9075 69.0953 13.3537 68.3267 12.9615C62.0526 9.7806 55.115 8.11769 48.0761 8.10747C41.0371 8.09725 34.0947 9.74001 27.8113 12.9027C27.0189 13.3013 26.3229 13.8668 25.7715 14.5601C25.2201 15.2535 24.8266 16.058 24.618 16.918C24.4124 17.7658 24.3941 18.6479 24.5645 19.5034C24.7348 20.3589 25.0897 21.1672 25.6046 21.8724L37.1329 37.6902C40.8035 34.7476 45.3738 33.1462 50.084 33.1522Z" fill="#E6E6E6"/>
</g>
<defs>
<clipPath id="clip0_2024_51786">
<rect width="242" height="194" fill="white"/>
</clipPath>
</defs>
</svg>
