<svg width="48" height="48" viewBox="0 0 48 48" fill="none" xmlns="http://www.w3.org/2000/svg">
<rect width="48" height="48" rx="24" fill="#EDEFF2"/>
<path d="M17.5697 34.7008C15.2297 34.7008 13.2497 32.7208 13.2497 30.3808V24.2208C13.1997 21.3008 14.2797 18.5508 16.2997 16.4908C18.3197 14.4408 21.0297 13.3008 23.9497 13.3008C29.9097 13.3008 34.7497 18.1508 34.7497 24.1008V30.2608C34.7497 32.6408 32.8097 34.5808 30.4297 34.5808C28.0897 34.5808 26.1097 32.6008 26.1097 30.2608V27.4508C26.1097 26.0008 27.2497 24.8608 28.6997 24.8608C30.1497 24.8608 31.2897 26.0008 31.2897 27.4508V30.4808C31.2897 30.8908 30.9497 31.2308 30.5397 31.2308C30.1297 31.2308 29.7897 30.8908 29.7897 30.4808V27.4508C29.7897 26.7708 29.2397 26.3608 28.6997 26.3608C28.0197 26.3608 27.6097 26.9108 27.6097 27.4508V30.2608C27.6097 31.7908 28.8997 33.0808 30.4297 33.0808C31.9597 33.0808 33.2497 31.7908 33.2497 30.2608V24.1008C33.2497 18.9708 29.0797 14.8008 23.9497 14.8008C21.4397 14.8008 19.1097 15.7708 17.3697 17.5408C15.6297 19.3108 14.6997 21.6808 14.7497 24.2008V30.3808C14.7497 31.9108 16.0397 33.2008 17.5697 33.2008C19.0997 33.2008 20.3897 31.9108 20.3897 30.3808V27.5708C20.3897 26.8908 19.8397 26.4808 19.2997 26.4808C18.6197 26.4808 18.2097 27.0308 18.2097 27.5708V30.4908C18.2097 30.9008 17.8697 31.2408 17.4597 31.2408C17.0497 31.2408 16.7097 30.9008 16.7097 30.4908V27.5708C16.7097 26.1208 17.8497 24.9808 19.2997 24.9808C20.7497 24.9808 21.8897 26.1208 21.8897 27.5708V30.3808C21.8897 32.7208 19.9097 34.7008 17.5697 34.7008Z" fill="#949494"/>
</svg>
