<svg width="179" height="36" viewBox="0 0 179 36" fill="none" xmlns="http://www.w3.org/2000/svg">
<path d="M54.6029 9.88872C54.3693 10.288 54.0289 10.6146 53.6198 10.8319C53.1577 11.0675 52.6438 11.1839 52.1251 11.1705H48.6911V5.80971H52.1251C52.6442 5.79585 53.1584 5.91324 53.6198 6.15097C54.0282 6.36797 54.3685 6.69347 54.6029 7.09145C54.8456 7.52241 54.9675 8.01066 54.9557 8.50486C54.9654 8.98945 54.8434 9.46762 54.6029 9.88872ZM58.1042 11.8906C58.7388 10.8773 59.0583 9.69918 59.0226 8.50486C59.0637 7.30087 58.7541 6.11079 58.1311 5.07881C57.5384 4.15564 56.6858 3.42748 55.6802 2.98557C54.5516 2.49678 53.3309 2.25577 52.1008 2.27886H44.627V21.763H48.6911V14.7013H51.5729L55.5321 21.763H60.0945L55.6371 14.008C56.6443 13.5564 57.4998 12.8251 58.1015 11.9014" fill="#1C3557"/>
<path d="M65.3905 10.805C65.9114 10.4645 66.5241 10.2911 67.1466 10.3078C67.7757 10.2872 68.3951 10.466 68.9161 10.8184C69.3954 11.1582 69.7501 11.6451 69.926 12.2049C69.9897 12.4132 70.0313 12.6275 70.0499 12.8445H64.1247C64.1675 12.6493 64.2233 12.4572 64.2917 12.2694C64.4962 11.6783 64.8815 11.1661 65.3932 10.805M72.245 20.4301C72.8274 19.9357 73.2812 19.3078 73.5674 18.6002L70.4216 17.1089C70.1476 17.5929 69.7437 17.9912 69.2554 18.259C68.6669 18.5509 68.0158 18.6952 67.3588 18.6792C66.7017 18.6633 66.0585 18.4877 65.4848 18.1676C64.943 17.8308 64.5209 17.3326 64.2782 16.7434C64.1423 16.4169 64.0517 16.0734 64.0089 15.7223H74.0333C74.1095 15.4981 74.1575 15.2652 74.1761 15.0291C74.203 14.7604 74.2164 14.4917 74.2164 14.2068C74.2247 13.2663 74.0651 12.3319 73.7451 11.4472C73.44 10.6172 72.9722 9.85626 72.3689 9.20882C71.7481 8.55351 70.9917 8.04093 70.1523 7.70673C69.1925 7.33289 68.1686 7.15031 67.1385 7.16931C65.8491 7.14958 64.579 7.48425 63.4675 8.13667C62.3927 8.77989 61.5051 9.69233 60.8928 10.7835C60.2437 11.9505 59.914 13.2674 59.9366 14.6018C59.922 15.9128 60.2378 17.2064 60.8551 18.3638C61.4546 19.4859 62.3519 20.422 63.4487 21.0697C64.6511 21.7598 66.0211 22.1057 67.4078 22.0693C68.3235 22.0787 69.2341 21.9334 70.1011 21.6393C70.8839 21.3723 71.6087 20.9592 72.2369 20.4221" fill="#1C3557"/>
<path d="M84.526 21.5157C85.2979 21.1805 85.9644 20.6428 86.4544 19.9598C86.9238 19.2756 87.1668 18.4618 87.1492 17.6328C87.1758 16.6773 86.839 15.7471 86.2066 15.029C85.4646 14.2557 84.5189 13.7071 83.4783 13.4463L81.1998 12.7665C80.8974 12.6805 80.6035 12.5671 80.3218 12.4279C80.1189 12.3328 79.943 12.1888 79.81 12.0087C79.7034 11.8501 79.6488 11.6623 79.6538 11.4713C79.6477 11.3031 79.684 11.136 79.7592 10.9853C79.8345 10.8346 79.9464 10.7052 80.0848 10.6087C80.4391 10.3806 80.8569 10.2706 81.2779 10.2943C81.9458 10.2831 82.602 10.4701 83.1632 10.8318C83.6929 11.1649 84.0943 11.6667 84.3024 12.2559L87.2139 10.8963C86.8047 9.74726 86.0128 8.77313 84.9704 8.13661C83.8609 7.46864 82.5842 7.12853 81.2887 7.15582C80.3153 7.13694 79.3494 7.32949 78.458 7.72011C77.6877 8.0519 77.0248 8.5905 76.5431 9.27594C76.0807 9.96287 75.8427 10.7757 75.8617 11.603C75.8441 12.5648 76.1804 13.4997 76.807 14.2309C77.5211 15.0272 78.46 15.5893 79.5003 15.8432L81.9377 16.523C82.2126 16.593 82.477 16.6987 82.7242 16.8374C82.909 16.9357 83.0699 17.0733 83.1955 17.2405C83.3036 17.3986 83.3592 17.5866 83.3544 17.7779C83.3624 17.9592 83.3258 18.1396 83.2479 18.3035C83.17 18.4675 83.0531 18.6099 82.9073 18.7184C82.5253 18.9774 82.0673 19.1013 81.6065 19.0704C80.8568 19.0764 80.1241 18.848 79.5111 18.4174C78.8617 17.9579 78.3459 17.3348 78.0163 16.6117L75.1426 17.9714C75.5551 19.217 76.3943 20.2777 77.5127 20.9675C78.7421 21.7212 80.1639 22.1038 81.6065 22.0692C82.6061 22.0927 83.5991 21.9011 84.5179 21.5076" fill="#1C3557"/>
<path d="M93.8593 10.805C94.3794 10.4651 94.9911 10.2916 95.6126 10.3078C96.2417 10.2872 96.8612 10.466 97.3821 10.8184C97.8615 11.1582 98.2162 11.6451 98.3921 12.2049C98.4558 12.4132 98.4973 12.6275 98.516 12.8445H92.5908C92.6335 12.6493 92.6893 12.4572 92.7577 12.2694C92.9623 11.6783 93.3476 11.1661 93.8593 10.805ZM98.8931 17.1089C98.6171 17.5924 98.2126 17.9905 97.7242 18.259C97.1356 18.5509 96.4846 18.6952 95.8275 18.6792C95.1705 18.6633 94.5272 18.4877 93.9536 18.1676C93.4124 17.8299 92.9906 17.332 92.747 16.7434C92.611 16.4169 92.5204 16.0734 92.4776 15.7223H102.502C102.58 15.4984 102.628 15.2654 102.645 15.0291C102.672 14.7604 102.685 14.4917 102.685 14.2068C102.693 13.2663 102.534 12.3319 102.214 11.4472C101.909 10.6172 101.441 9.85626 100.838 9.20882C100.217 8.55351 99.4604 8.04093 98.621 7.70673C97.6613 7.33289 96.6374 7.15031 95.6072 7.16931C94.3178 7.14958 93.0478 7.48425 91.9363 8.13667C90.8614 8.77989 89.9738 9.69233 89.3615 10.7835C88.7125 11.9505 88.3827 13.2674 88.4054 14.6018C88.3907 15.9128 88.7065 17.2064 89.3238 18.3638C89.9236 19.4866 90.822 20.4228 91.9201 21.0697C93.123 21.7612 94.4942 22.1072 95.882 22.0693C96.7976 22.0787 97.7083 21.9334 98.5752 21.6393C99.3581 21.3723 100.083 20.9592 100.711 20.4221C101.293 19.9276 101.747 19.2997 102.033 18.5922L98.8931 17.1089Z" fill="#1C3557"/>
<path d="M108.407 1.96484H104.475V21.7634H108.407V1.96484Z" fill="#1C3557"/>
<path d="M114.7 1.96484H110.768V21.7634H114.7V1.96484Z" fill="#1C3557"/>
<path d="M121.933 10.8052C122.453 10.4648 123.066 10.2913 123.689 10.3081C124.318 10.2875 124.937 10.4662 125.458 10.8186C125.937 11.1584 126.292 11.6454 126.468 12.2052C126.532 12.4134 126.573 12.6278 126.592 12.8447H120.659C120.701 12.6495 120.757 12.4574 120.826 12.2697C121.03 11.6785 121.415 11.1663 121.927 10.8052M119.988 21.0699C121.191 21.7615 122.562 22.1074 123.95 22.0695C124.866 22.079 125.776 21.9336 126.643 21.6396C127.426 21.3726 128.151 20.9595 128.779 20.4223C129.361 19.9272 129.816 19.2996 130.104 18.5924L126.958 17.1011C126.683 17.5839 126.279 17.9818 125.792 18.2512C125.204 18.5431 124.553 18.6874 123.895 18.6714C123.238 18.6555 122.595 18.4799 122.021 18.1598C121.48 17.823 121.058 17.3248 120.815 16.7356C120.679 16.4091 120.588 16.0655 120.546 15.7145H130.57C130.646 15.4902 130.694 15.2574 130.713 15.0213C130.74 14.7526 130.753 14.4838 130.753 14.199C130.761 13.2585 130.602 12.324 130.282 11.4394C129.977 10.6094 129.509 9.84845 128.906 9.20101C128.285 8.54569 127.528 8.03312 126.689 7.69892C125.729 7.32507 124.705 7.14249 123.675 7.1615C122.386 7.14218 121.116 7.47682 120.004 8.12886C118.926 8.77284 118.038 9.68845 117.427 10.7837C116.776 11.9501 116.445 13.2673 116.468 14.6021C116.453 15.913 116.769 17.2066 117.386 18.364C117.986 19.4868 118.884 20.4231 119.983 21.0699" fill="#1C3557"/>
<path d="M136.483 14.0753C136.483 13.0112 136.78 12.1871 137.374 11.6031C137.684 11.308 138.05 11.0783 138.451 10.9277C138.852 10.7772 139.279 10.709 139.707 10.7271H140.938V7.32796H140.1C139.197 7.30383 138.304 7.52487 137.517 7.96749C136.912 8.35773 136.455 8.93843 136.219 9.61736V7.48381H132.551V21.763H136.483V14.0753Z" fill="#1C3557"/>
<path d="M158.029 14.5975C157.727 15.36 157.268 16.051 156.683 16.6263C156.106 17.1914 155.424 17.6394 154.676 17.9457C153.085 18.5735 151.314 18.5735 149.723 17.9457C148.974 17.6408 148.293 17.1925 147.717 16.6263C147.13 16.0517 146.671 15.3605 146.37 14.5975C146.047 13.7733 145.886 12.8948 145.896 12.0099C145.893 11.1296 146.061 10.2572 146.392 9.441C146.693 8.68327 147.146 7.9948 147.723 7.41773C148.3 6.84065 148.989 6.3871 149.747 6.08481C151.342 5.47581 153.106 5.47581 154.7 6.08481C155.454 6.39014 156.138 6.84506 156.71 7.42199C157.282 7.99891 157.731 8.6858 158.029 9.441C158.352 10.2614 158.512 11.1366 158.501 12.0179C158.511 12.9027 158.351 13.7812 158.029 14.6056M159.616 4.85144C158.669 3.93314 157.551 3.20996 156.324 2.72326C153.675 1.70944 150.743 1.70944 148.094 2.72326C146.869 3.20745 145.752 3.92688 144.805 4.84069C143.871 5.74562 143.13 6.83082 142.629 8.03027C142.105 9.29038 141.842 10.6431 141.856 12.0072C141.833 14.0111 142.421 15.9746 143.542 17.6378C144.662 19.301 146.263 20.5853 148.131 21.3207C150.764 22.3311 153.679 22.3311 156.311 21.3207C158.177 20.5831 159.774 19.2983 160.893 17.636C162.011 15.9736 162.598 14.0119 162.576 12.0099C162.588 10.6459 162.325 9.29345 161.803 8.03296C161.301 6.83405 160.56 5.74903 159.626 4.84337" fill="#1C3557"/>
<path d="M174.308 10.8055L170.559 9.60165C170.044 9.46146 169.578 9.18255 169.212 8.79552C168.92 8.46884 168.762 8.04518 168.767 7.60782C168.76 7.21055 168.879 6.82111 169.107 6.49536C169.352 6.15897 169.688 5.89972 170.076 5.74835C170.535 5.56525 171.026 5.47395 171.52 5.47964C172.419 5.46673 173.299 5.73655 174.036 6.25084C174.784 6.7849 175.358 7.52693 175.687 8.38439L178.989 6.89305C178.646 5.90225 178.087 4.99995 177.351 4.25163C176.617 3.5126 175.738 2.93343 174.768 2.5507C173.734 2.14297 172.631 1.93858 171.52 1.94879C170.304 1.92517 169.098 2.17594 167.992 2.68237C167.022 3.12659 166.196 3.83315 165.608 4.72188C165.03 5.62691 164.733 6.68247 164.754 7.75561C164.725 8.98189 165.145 10.1768 165.934 11.1172C166.721 12.0505 167.892 12.767 169.449 13.2668L173.287 14.5459C173.785 14.68 174.237 14.9465 174.596 15.3171C174.876 15.6393 175.026 16.0541 175.016 16.4806C175.023 16.8662 174.904 17.2436 174.677 17.5555C174.431 17.8745 174.104 18.123 173.731 18.2756C173.274 18.4629 172.784 18.5544 172.29 18.5443C171.257 18.5541 170.247 18.234 169.408 17.6307C168.518 16.9909 167.817 16.124 167.378 15.1209L164.049 16.6123C164.412 17.6943 165.006 18.6846 165.791 19.5143C166.573 20.3363 167.52 20.983 168.571 21.4114C169.667 21.8575 170.842 22.0813 172.026 22.0698C173.278 22.0972 174.52 21.8428 175.66 21.3255C176.648 20.8692 177.495 20.1553 178.11 19.2591C178.707 18.3654 179.016 17.3121 178.999 16.2388C179.029 15.0319 178.614 13.856 177.833 12.9336C177.057 12.029 175.882 11.3232 174.308 10.8162" fill="#1C3557"/>
<path d="M47.1317 30.5369L48.7477 25.8829L50.3637 30.5369H47.1317ZM48.007 24.4883L44.627 33.8931H45.9574L46.7277 31.6843H50.7515L51.5245 33.8931H52.8523L49.4749 24.4883H48.007Z" fill="#1C3557"/>
<path d="M55.4421 28.3783C55.7759 28.1665 56.1643 28.0563 56.5598 28.0612C56.9651 28.054 57.3628 28.1712 57.6991 28.3971C58.0197 28.6102 58.2736 28.9091 58.4317 29.2596L59.482 28.7572C59.3467 28.3941 59.126 28.0688 58.8383 27.8086C58.5367 27.5361 58.1894 27.3187 57.8122 27.1664C57.415 27.0036 56.9892 26.9214 56.5598 26.9246C55.949 26.9118 55.3463 27.0664 54.8173 27.3715C54.2883 27.6766 53.8533 28.1205 53.5595 28.655C53.2583 29.2136 53.1062 29.8401 53.1178 30.4742C53.1085 31.1073 53.2605 31.7323 53.5595 32.2907C53.844 32.8186 54.2665 33.2597 54.7823 33.5671C55.3199 33.8843 55.9353 34.0462 56.5598 34.0346C56.9892 34.0378 57.415 33.9556 57.8122 33.7928C58.1908 33.6396 58.5385 33.4193 58.8383 33.1425C59.1236 32.8835 59.344 32.5614 59.482 32.202L58.4317 31.6646C58.2796 32.026 58.025 32.3352 57.6991 32.554C57.3638 32.7827 56.966 32.9028 56.5598 32.898C56.1634 32.9034 55.774 32.7932 55.4394 32.5809C55.1025 32.3685 54.829 32.0697 54.6476 31.7156C54.4563 31.3301 54.3567 30.9057 54.3567 30.4756C54.3567 30.0454 54.4563 29.621 54.6476 29.2355C54.8315 28.8853 55.1046 28.5897 55.4394 28.3783" fill="#1C3557"/>
<path d="M62.8184 28.3781C63.1531 28.1661 63.5424 28.0559 63.9388 28.061C64.3441 28.0538 64.7418 28.171 65.078 28.3969C65.3987 28.6106 65.6534 28.9093 65.8133 29.2594L66.8637 28.7569C66.7269 28.394 66.5053 28.0688 66.2173 27.8084C65.9157 27.5359 65.5683 27.3185 65.1911 27.1662C64.7939 27.0034 64.3682 26.9211 63.9388 26.9243C63.3143 26.9135 62.6991 27.0753 62.1612 27.3919C61.6487 27.6965 61.2274 28.1326 60.9411 28.6548C60.6379 29.2127 60.4848 29.8395 60.4967 30.474C60.487 31.1074 60.64 31.7328 60.9411 32.2905C61.2239 32.8187 61.6457 33.26 62.1612 33.5668C62.6991 33.8834 63.3143 34.0452 63.9388 34.0344C64.3682 34.0376 64.7939 33.9554 65.1911 33.7926C65.5697 33.6394 65.9174 33.4191 66.2173 33.1423C66.5033 32.8834 66.7247 32.5613 66.8637 32.2018L65.8133 31.6644C65.6594 32.0255 65.4041 32.3344 65.078 32.5538C64.7418 32.7797 64.3441 32.8969 63.9388 32.8897C63.5424 32.8948 63.1531 32.7846 62.8184 32.5726C62.4822 32.3601 62.2097 32.0612 62.0292 31.7074C61.8379 31.3219 61.7383 30.8975 61.7383 30.4673C61.7383 30.0371 61.8379 29.6127 62.0292 29.2272C62.2121 28.8772 62.4843 28.5815 62.8184 28.37" fill="#1C3557"/>
<path d="M70.1006 28.2772C70.4244 28.0778 70.7975 27.9727 71.1779 27.9736C71.5509 27.9683 71.9173 28.0717 72.2321 28.2713C72.5469 28.4708 72.7965 28.7577 72.9501 29.0968C73.0518 29.3234 73.1051 29.5686 73.1063 29.8169H69.1364C69.1672 29.5831 69.2345 29.3555 69.3357 29.1425C69.5001 28.7854 69.7661 28.4845 70.1006 28.2772ZM73.5265 27.9306C73.2468 27.6209 72.9068 27.3713 72.5273 27.197C72.1032 27.0113 71.6437 26.9196 71.1806 26.9283C70.5852 26.9198 69.9997 27.0801 69.4919 27.3905C68.9909 27.6964 68.5801 28.1294 68.3015 28.6453C68.0122 29.2093 67.8613 29.8337 67.8613 30.4672C67.8613 31.1007 68.0122 31.7251 68.3015 32.2891C68.5845 32.8256 69.0114 33.273 69.5346 33.5815C70.0578 33.8899 70.6566 34.0471 71.2641 34.0357C71.7028 34.0414 72.1386 33.9648 72.5488 33.81C72.9168 33.6687 73.2555 33.461 73.548 33.1973C73.815 32.9613 74.0281 32.6708 74.1729 32.3455L73.1871 31.8403C72.9973 32.1621 72.7378 32.4375 72.4276 32.6464C72.0849 32.8648 71.684 32.9744 71.2776 32.9608C70.874 32.9643 70.4772 32.8575 70.1303 32.6518C69.7816 32.4464 69.5008 32.1438 69.3223 31.7812C69.1742 31.4842 69.0924 31.1588 69.0826 30.8273H74.3345C74.3506 30.7278 74.3641 30.6204 74.3776 30.5048C74.39 30.4023 74.3963 30.2991 74.3964 30.1958C74.3964 29.7801 74.3216 29.3679 74.1756 28.9785C74.0319 28.5929 73.8173 28.2375 73.5427 27.9306" fill="#1C3557"/>
<path d="M76.8469 24.3242H75.6699V33.8822H76.8469V24.3242Z" fill="#1C3557"/>
<path d="M80.3647 28.2775C80.6882 28.0777 81.0615 27.9725 81.442 27.9738C81.8145 27.969 82.1803 28.0728 82.4945 28.2723C82.8088 28.4718 83.058 28.7584 83.2115 29.097C83.3128 29.3239 83.3669 29.5689 83.3704 29.8172H79.4005C79.4316 29.5838 79.4979 29.3564 79.5971 29.1427C79.7624 28.7855 80.0293 28.4846 80.3647 28.2775ZM83.7986 27.9308C83.5194 27.6206 83.1793 27.3709 82.7994 27.1973C82.3133 26.99 81.7852 26.8993 81.2577 26.9324C80.7301 26.9656 80.2176 27.1216 79.7614 27.388C79.2611 27.6941 78.8513 28.1271 78.5736 28.6429C78.2852 29.2071 78.1348 29.8314 78.1348 30.4648C78.1348 31.0981 78.2852 31.7224 78.5736 32.2866C78.8566 32.8231 79.2836 33.2706 79.8067 33.579C80.3299 33.8875 80.9287 34.0447 81.5362 34.0332C81.9749 34.0395 82.4108 33.9629 82.8209 33.8075C83.1892 33.6669 83.528 33.4591 83.8202 33.1949C84.0879 32.9589 84.3019 32.6685 84.4477 32.3431L83.4593 31.8379C83.2696 32.1589 83.0112 32.4342 82.7024 32.644C82.3588 32.8624 81.9569 32.972 81.5497 32.9584C81.147 32.9618 80.7511 32.8549 80.4051 32.6494C80.0572 32.443 79.7766 32.1406 79.5971 31.7788C79.4502 31.4814 79.3685 31.1562 79.3574 30.8248H84.577C84.5931 30.7254 84.6093 30.6179 84.6201 30.5024C84.6325 30.3998 84.6388 30.2967 84.6389 30.1934C84.6402 29.7776 84.5654 29.3651 84.4181 28.9761C84.2744 28.5905 84.0597 28.2351 83.7851 27.9281" fill="#1C3557"/>
<path d="M87.6904 27.2841C87.4371 27.4306 87.2278 27.6422 87.0844 27.8968V27.0907H85.9316V33.8917H87.1086V29.8288C87.094 29.5987 87.1255 29.368 87.2014 29.1503C87.2772 28.9325 87.3958 28.732 87.5503 28.5605C87.7034 28.4099 87.886 28.2923 88.0866 28.2151C88.2873 28.1379 88.5017 28.1028 88.7165 28.1118H89.309V27.002H88.8916C88.4745 26.9849 88.0602 27.0776 87.6904 27.2707" fill="#1C3557"/>
<path d="M94.1108 32.0251C93.9337 32.3343 93.6759 32.5897 93.3647 32.7641C93.0219 32.9517 92.6351 33.0445 92.2443 33.0328C91.941 33.0464 91.6429 32.9511 91.404 32.7641C91.2982 32.6822 91.2127 32.577 91.1544 32.4567C91.096 32.3365 91.0662 32.2044 91.0673 32.0708C91.0642 31.9326 91.0891 31.7952 91.1404 31.6669C91.1918 31.5385 91.2686 31.4218 91.3663 31.3238C91.6351 31.0911 91.9686 30.9458 92.3224 30.9073L94.3855 30.5633V30.996C94.3915 31.3588 94.2984 31.7164 94.1161 32.0305M94.302 27.2286C93.8713 27.0224 93.398 26.9202 92.9203 26.9304C92.5225 26.93 92.1281 27.0029 91.7568 27.1453C91.3985 27.2803 91.068 27.4797 90.7819 27.7338C90.5176 27.9627 90.3101 28.2497 90.1759 28.5722L91.1993 29.1096C91.3388 28.7877 91.5702 28.5139 91.8646 28.3223C92.1704 28.1215 92.53 28.0175 92.8961 28.024C93.2857 28.007 93.6683 28.131 93.9734 28.3733C94.1064 28.482 94.2127 28.6197 94.2842 28.7757C94.3556 28.9318 94.3903 29.102 94.3855 29.2735V29.5852L92.0558 29.9695C91.6128 30.0313 91.1859 30.1773 90.798 30.3994C90.4898 30.574 90.2354 30.8296 90.0627 31.1384C89.9037 31.4397 89.8231 31.776 89.8284 32.1165C89.8218 32.4722 89.9232 32.8216 90.1193 33.1188C90.3215 33.4152 90.6008 33.6512 90.9273 33.8013C91.2986 33.9718 91.7037 34.0563 92.1123 34.0485C92.4791 34.0525 92.8437 33.9925 93.1897 33.8711C93.5025 33.7615 93.7941 33.5988 94.0515 33.3902C94.1871 33.2756 94.3099 33.1468 94.4178 33.0059V33.8926H95.5705V29.2708C95.5791 28.8411 95.4621 28.4181 95.2339 28.0536C95.0042 27.7049 94.6827 27.426 94.3047 27.2475" fill="#1C3557"/>
<path d="M100.015 32.8851C99.7825 32.8953 99.5515 32.8453 99.3442 32.74C99.1833 32.6508 99.0564 32.511 98.9833 32.3423C98.9086 32.1534 98.872 31.9516 98.8756 31.7485V28.2015H100.408V27.0783H98.8756V25.5117H97.7013V26.0679C97.7074 26.2015 97.6867 26.335 97.6405 26.4605C97.5943 26.586 97.5234 26.701 97.432 26.7988C97.3371 26.8914 97.2239 26.9631 97.0996 27.0094C96.9753 27.0557 96.8426 27.0755 96.7102 27.0675H96.457V28.1908H97.6986V31.7753C97.6596 32.3624 97.853 32.9413 98.2373 33.3876C98.4395 33.5844 98.6809 33.7366 98.9458 33.8342C99.2107 33.9319 99.4933 33.9729 99.7752 33.9546C99.8667 33.9546 99.9825 33.9546 100.117 33.9358C100.241 33.9267 100.363 33.9078 100.483 33.8793V32.8448L100.238 32.869C100.164 32.8735 100.089 32.8735 100.015 32.869" fill="#1C3557"/>
<path d="M103.523 28.2775C103.846 28.0777 104.22 27.9725 104.6 27.9738C104.973 27.969 105.338 28.0728 105.653 28.2723C105.967 28.4718 106.216 28.7584 106.37 29.097C106.472 29.3235 106.526 29.5687 106.529 29.8172H102.559C102.59 29.5838 102.656 29.3564 102.755 29.1427C102.921 28.786 103.188 28.4853 103.523 28.2775ZM106.957 27.9308C106.678 27.6206 106.338 27.3709 105.958 27.1973C105.471 26.99 104.943 26.8993 104.416 26.9324C103.888 26.9656 103.376 27.1216 102.92 27.388C102.419 27.6941 102.009 28.1271 101.732 28.6429C101.443 29.2071 101.293 29.8314 101.293 30.4648C101.293 31.0981 101.443 31.7224 101.732 32.2866C102.015 32.8231 102.442 33.2706 102.965 33.579C103.488 33.8875 104.087 34.0447 104.694 34.0332C105.133 34.0395 105.569 33.9629 105.979 33.8075C106.347 33.6669 106.686 33.4591 106.978 33.1949C107.246 32.9589 107.46 32.6685 107.606 32.3431L106.617 31.8379C106.428 32.1589 106.169 32.4342 105.861 32.644C105.517 32.8624 105.115 32.972 104.708 32.9584C104.305 32.9618 103.909 32.8549 103.563 32.6494C103.215 32.443 102.935 32.1406 102.755 31.7788C102.609 31.4812 102.529 31.156 102.518 30.8248H107.735C107.751 30.7254 107.767 30.6179 107.778 30.5024C107.791 30.3998 107.797 30.2967 107.797 30.1934C107.798 29.7776 107.724 29.3651 107.576 28.9761C107.433 28.5905 107.218 28.2351 106.943 27.9281" fill="#1C3557"/>
<path d="M115.272 28.8698L113.689 28.4022C113.302 28.2974 112.955 28.0827 112.689 27.7842C112.475 27.5251 112.358 27.1987 112.361 26.8625C112.358 26.5924 112.433 26.3271 112.579 26.0994C112.725 25.88 112.932 25.7081 113.174 25.605C113.456 25.4874 113.76 25.4298 114.066 25.4357C114.578 25.4159 115.084 25.5623 115.506 25.8529C115.928 26.1435 116.245 26.5628 116.409 27.0479L117.47 26.6072C117.32 26.1716 117.079 25.7731 116.762 25.4384C116.431 25.0935 116.033 24.8193 115.593 24.6322C115.107 24.4251 114.583 24.3217 114.055 24.3286C113.531 24.3198 113.012 24.4349 112.541 24.6645C112.117 24.8687 111.757 25.1858 111.502 25.5808C111.25 25.988 111.121 26.4592 111.13 26.9378C111.122 27.5065 111.312 28.0604 111.669 28.5043C112.076 28.9893 112.623 29.3374 113.236 29.5013L114.971 30.0387C115.34 30.1265 115.679 30.3122 115.951 30.5761C116.066 30.7031 116.155 30.8516 116.212 31.013C116.27 31.1744 116.294 31.3456 116.285 31.5166C116.29 31.786 116.208 32.05 116.051 32.269C115.885 32.4918 115.66 32.664 115.402 32.7661C115.092 32.89 114.76 32.9503 114.427 32.9434C113.858 32.9561 113.301 32.7855 112.838 32.4571C112.364 32.1063 112.009 31.6198 111.82 31.0625L110.742 31.5058C110.894 31.9871 111.149 32.4299 111.488 32.8037C111.839 33.1966 112.271 33.5091 112.754 33.72C113.272 33.9469 113.832 34.0605 114.397 34.0532C114.954 34.0637 115.506 33.9499 116.013 33.72C116.458 33.5165 116.839 33.1961 117.115 32.7929C117.381 32.3881 117.52 31.9125 117.513 31.4279C117.53 30.8535 117.326 30.2944 116.945 29.864C116.482 29.3942 115.9 29.0581 115.262 28.8913" fill="#1C3557"/>
<path d="M122.763 32.0251C122.582 32.3349 122.32 32.5902 122.006 32.764C121.664 32.9513 121.278 33.0441 120.888 33.0327C120.584 33.0468 120.285 32.9515 120.045 32.764C119.94 32.682 119.855 32.5767 119.797 32.4565C119.739 32.3362 119.71 32.2042 119.711 32.0708C119.708 31.9328 119.732 31.7955 119.783 31.6671C119.834 31.5388 119.91 31.422 120.008 31.3238C120.276 31.0911 120.61 30.9457 120.964 30.9073L123.027 30.5633V30.9959C123.032 31.3586 122.939 31.7159 122.758 32.0305M122.941 27.2286C122.511 27.0226 122.038 26.9204 121.562 26.9303C121.163 26.9296 120.768 27.0025 120.395 27.1453C120.038 27.2796 119.708 27.4792 119.423 27.7338C119.157 27.9619 118.949 28.249 118.815 28.5722L119.841 29.1096C119.978 28.7874 120.209 28.5133 120.503 28.3223C120.809 28.1215 121.169 28.0175 121.535 28.024C121.924 28.0069 122.307 28.131 122.612 28.3733C122.745 28.482 122.851 28.6196 122.923 28.7757C122.994 28.9317 123.029 29.102 123.024 29.2735V29.5852L120.694 29.9695C120.252 30.0313 119.825 30.1772 119.437 30.3994C119.128 30.5739 118.874 30.8295 118.701 31.1383C118.542 31.4396 118.462 31.776 118.467 32.1164C118.46 32.4722 118.562 32.8216 118.758 33.1187C118.96 33.4156 119.239 33.6516 119.566 33.8013C119.936 33.9719 120.341 34.0565 120.748 34.0485C121.115 34.0525 121.48 33.9924 121.826 33.8711C122.139 33.7615 122.43 33.5987 122.687 33.3901C122.823 33.2756 122.946 33.1467 123.054 33.0059V33.8926H124.207V29.2708C124.215 28.8411 124.098 28.4181 123.87 28.0536C123.64 27.7049 123.319 27.426 122.941 27.2474" fill="#1C3557"/>
<path d="M126.956 24.3242H125.779V33.8822H126.956V24.3242Z" fill="#1C3557"/>
<path d="M130.473 28.2772C130.797 28.0778 131.17 27.9727 131.551 27.9736C131.924 27.9683 132.29 28.0717 132.605 28.2713C132.92 28.4708 133.169 28.7577 133.323 29.0968C133.425 29.3234 133.478 29.5686 133.479 29.8169H129.512C129.542 29.5833 129.608 29.3557 129.708 29.1425C129.873 28.7854 130.139 28.4845 130.473 28.2772ZM133.91 27.9306C133.63 27.6209 133.29 27.3713 132.911 27.197C132.487 27.0113 132.027 26.9196 131.564 26.9283C130.969 26.9201 130.383 27.0803 129.875 27.3905C129.375 27.6957 128.965 28.1289 128.688 28.6453C128.388 29.2042 128.237 29.8306 128.249 30.4645C128.24 31.1004 128.393 31.7281 128.693 32.2891C128.976 32.8256 129.403 33.273 129.926 33.5815C130.449 33.8899 131.048 34.0471 131.656 34.0357C132.094 34.0414 132.53 33.9648 132.94 33.81C133.308 33.6687 133.647 33.461 133.94 33.1973C134.207 32.9606 134.42 32.6703 134.567 32.3455L133.587 31.8376C133.397 32.1594 133.137 32.4348 132.827 32.6437C132.485 32.8621 132.084 32.9717 131.677 32.9581C131.275 32.962 130.878 32.8551 130.533 32.6491C130.184 32.4442 129.903 32.1415 129.725 31.7785C129.578 31.4811 129.496 31.1559 129.485 30.8246H134.705C134.721 30.7252 134.734 30.6177 134.748 30.5021C134.76 30.3996 134.766 30.2964 134.766 30.1931C134.768 29.7773 134.693 29.3648 134.546 28.9759C134.402 28.5902 134.187 28.2348 133.913 27.9279" fill="#1C3557"/>
<path d="M139.206 30.0968L138.094 29.7663C137.952 29.7225 137.812 29.6705 137.676 29.6104C137.534 29.5508 137.407 29.4588 137.307 29.3417C137.203 29.2068 137.149 29.0393 137.156 28.8688C137.154 28.7445 137.181 28.6214 137.234 28.5088C137.286 28.3962 137.364 28.2969 137.461 28.2185C137.689 28.0355 137.976 27.9401 138.269 27.9498C138.634 27.9452 138.993 28.0531 139.295 28.2588C139.599 28.4659 139.836 28.7573 139.976 29.0972L140.94 28.6565C140.753 28.1292 140.393 27.6799 139.92 27.3802C139.436 27.0765 138.875 26.9188 138.304 26.926C137.888 26.9204 137.476 27.0067 137.097 27.1786C136.757 27.333 136.464 27.5751 136.249 27.88C136.038 28.1904 135.93 28.5586 135.939 28.9333C135.933 29.3556 136.083 29.7653 136.362 30.0834C136.728 30.4599 137.196 30.723 137.708 30.8411L138.735 31.1313C138.887 31.1704 139.036 31.2235 139.179 31.2899C139.334 31.3569 139.474 31.4558 139.588 31.5801C139.648 31.6454 139.693 31.7218 139.723 31.8048C139.752 31.8878 139.765 31.9758 139.761 32.0638C139.763 32.201 139.73 32.3365 139.666 32.4581C139.602 32.5796 139.509 32.6833 139.394 32.7597C139.122 32.946 138.798 33.0402 138.468 33.0284C138.065 33.0311 137.671 32.907 137.342 32.6737C136.994 32.4297 136.715 32.099 136.534 31.7144L135.6 32.1686C135.8 32.7283 136.179 33.2075 136.677 33.5336C137.134 33.8126 137.651 33.9808 138.185 34.0247C138.719 34.0686 139.256 33.9869 139.753 33.7862C140.103 33.6333 140.405 33.3881 140.625 33.0768C140.853 32.7415 140.963 32.3398 140.937 31.9354C140.91 31.531 140.75 31.1469 140.48 30.8438C140.125 30.48 139.675 30.2222 139.182 30.0995" fill="#1C3557"/>
<path d="M4.47355 6.34715L7.86978 2.95872L20.4259 15.4833L7.86978 28.0105L4.47355 24.6221L13.6307 15.486L4.47355 6.34715ZM0 35.9643H23.4828L13.69 26.0839L24.5385 15.2629L15.3814 6.12681L18.7722 2.73569L31.3283 15.2629L20.469 26.1L30.2429 35.9616H36.02V0.0351562H0V35.9643Z" fill="#467C9D"/>
</svg>
