<svg width="24" height="24" viewBox="0 0 28 28" fill="none" xmlns="http://www.w3.org/2000/svg">
<rect width="28" height="28" rx="14" fill="#EF697B"/>
<path fill-rule="evenodd" clip-rule="evenodd" d="M8.55876 8.5583C8.67595 8.44126 8.8348 8.37552 9.00043 8.37552C9.16605 8.37552 9.32491 8.44126 9.44209 8.5583L14.0004 13.1166L18.5588 8.5583C18.616 8.49689 18.685 8.44764 18.7616 8.41348C18.8383 8.37932 18.9211 8.36095 19.005 8.35947C19.0889 8.35799 19.1723 8.37343 19.2501 8.40486C19.3279 8.4363 19.3986 8.48308 19.458 8.54243C19.5173 8.60178 19.5641 8.67248 19.5955 8.7503C19.627 8.82812 19.6424 8.91148 19.6409 8.9954C19.6394 9.07932 19.6211 9.16208 19.5869 9.23875C19.5528 9.31541 19.5035 9.38441 19.4421 9.44163L14.8838 14L19.4421 18.5583C19.5035 18.6155 19.5528 18.6845 19.5869 18.7612C19.6211 18.8378 19.6394 18.9206 19.6409 19.0045C19.6424 19.0884 19.627 19.1718 19.5955 19.2496C19.5641 19.3275 19.5173 19.3981 19.458 19.4575C19.3986 19.5168 19.3279 19.5636 19.2501 19.5951C19.1723 19.6265 19.0889 19.6419 19.005 19.6405C18.9211 19.639 18.8383 19.6206 18.7616 19.5864C18.685 19.5523 18.616 19.503 18.5588 19.4416L14.0004 14.8833L9.44209 19.4416C9.32361 19.552 9.16691 19.6121 9.00499 19.6093C8.84307 19.6064 8.68859 19.5408 8.57407 19.4263C8.45956 19.3118 8.39397 19.1573 8.39111 18.9954C8.38826 18.8335 8.44836 18.6768 8.55876 18.5583L13.1171 14L8.55876 9.44163C8.44172 9.32444 8.37598 9.16559 8.37598 8.99997C8.37598 8.83434 8.44172 8.67549 8.55876 8.5583Z" fill="white"/>
</svg>
