<svg width="25" height="24" viewBox="0 0 25 24" fill="none" xmlns="http://www.w3.org/2000/svg">
<path d="M13.6496 16.2502H11.7696C10.4396 16.2502 9.34961 15.1302 9.34961 13.7502C9.34961 13.3402 9.68961 13.0002 10.0996 13.0002C10.5096 13.0002 10.8496 13.3402 10.8496 13.7502C10.8496 14.3002 11.2596 14.7502 11.7696 14.7502H13.6496C14.0396 14.7502 14.3496 14.4002 14.3496 13.9702C14.3496 13.4302 14.1996 13.3502 13.8596 13.2302L10.8496 12.1802C10.2096 11.9602 9.34961 11.4902 9.34961 10.0202C9.34961 8.77023 10.3396 7.74023 11.5496 7.74023H13.4296C14.7596 7.74023 15.8496 8.86023 15.8496 10.2402C15.8496 10.6502 15.5096 10.9902 15.0996 10.9902C14.6896 10.9902 14.3496 10.6502 14.3496 10.2402C14.3496 9.69023 13.9396 9.24023 13.4296 9.24023H11.5496C11.1596 9.24023 10.8496 9.59023 10.8496 10.0202C10.8496 10.5602 10.9996 10.6402 11.3396 10.7602L14.3496 11.8102C14.9896 12.0302 15.8496 12.5002 15.8496 13.9702C15.8496 15.2302 14.8596 16.2502 13.6496 16.2502Z" fill="#EB445A"/>
<path d="M12.5996 17.25C12.1896 17.25 11.8496 16.91 11.8496 16.5V7.5C11.8496 7.09 12.1896 6.75 12.5996 6.75C13.0096 6.75 13.3496 7.09 13.3496 7.5V16.5C13.3496 16.91 13.0096 17.25 12.5996 17.25Z" fill="#EB445A"/>
<path d="M12.5996 22.75C6.66961 22.75 1.84961 17.93 1.84961 12C1.84961 6.07 6.66961 1.25 12.5996 1.25C13.0096 1.25 13.3496 1.59 13.3496 2C13.3496 2.41 13.0096 2.75 12.5996 2.75C7.49961 2.75 3.34961 6.9 3.34961 12C3.34961 17.1 7.49961 21.25 12.5996 21.25C17.6996 21.25 21.8496 17.1 21.8496 12C21.8496 11.59 22.1896 11.25 22.5996 11.25C23.0096 11.25 23.3496 11.59 23.3496 12C23.3496 17.93 18.5296 22.75 12.5996 22.75Z" fill="#EB445A"/>
<path d="M21.5996 7.75H17.5996C17.1896 7.75 16.8496 7.41 16.8496 7V3C16.8496 2.59 17.1896 2.25 17.5996 2.25C18.0096 2.25 18.3496 2.59 18.3496 3V6.25H21.5996C22.0096 6.25 22.3496 6.59 22.3496 7C22.3496 7.41 22.0096 7.75 21.5996 7.75Z" fill="#EB445A"/>
<path d="M17.5991 7.74945C17.4091 7.74945 17.2191 7.67945 17.0691 7.52945C16.7791 7.23945 16.7791 6.75945 17.0691 6.46945L22.0691 1.46945C22.3591 1.17945 22.8391 1.17945 23.1291 1.46945C23.4191 1.75945 23.4191 2.23945 23.1291 2.52945L18.1291 7.52945C17.9791 7.67945 17.7891 7.74945 17.5991 7.74945Z" fill="#EB445A"/>
</svg>
