<svg width="48" height="48" viewBox="0 0 48 48" fill="none" xmlns="http://www.w3.org/2000/svg">
<rect width="48" height="48" rx="24" fill="#EDEFF2"/>
<path d="M24.0199 32.5299C21.6899 32.5299 19.3599 32.1599 17.1499 31.4199C16.3099 31.1299 15.6699 30.5399 15.3899 29.7699C15.0999 28.9999 15.1999 28.1499 15.6599 27.3899L16.8099 25.4799C17.0499 25.0799 17.2699 24.2799 17.2699 23.8099V20.9199C17.2699 17.1999 20.2999 14.1699 24.0199 14.1699C27.7399 14.1699 30.7699 17.1999 30.7699 20.9199V23.8099C30.7699 24.2699 30.9899 25.0799 31.2299 25.4899L32.3699 27.3899C32.7999 28.1099 32.8799 28.9799 32.5899 29.7699C32.2999 30.5599 31.6699 31.1599 30.8799 31.4199C28.6799 32.1599 26.3499 32.5299 24.0199 32.5299ZM24.0199 15.6699C21.1299 15.6699 18.7699 18.0199 18.7699 20.9199V23.8099C18.7699 24.5399 18.4699 25.6199 18.0999 26.2499L16.9499 28.1599C16.7299 28.5299 16.6699 28.9199 16.7999 29.2499C16.9199 29.5899 17.2199 29.8499 17.6299 29.9899C21.8099 31.3899 26.2399 31.3899 30.4199 29.9899C30.7799 29.8699 31.0599 29.5999 31.1899 29.2399C31.3199 28.8799 31.2899 28.4899 31.0899 28.1599L29.9399 26.2499C29.5599 25.5999 29.2699 24.5299 29.2699 23.7999V20.9199C29.2699 18.0199 26.9199 15.6699 24.0199 15.6699Z" fill="#949494"/>
<path d="M25.8806 15.9397C25.8106 15.9397 25.7406 15.9297 25.6706 15.9097C25.3806 15.8297 25.1006 15.7697 24.8306 15.7297C23.9806 15.6197 23.1606 15.6797 22.3906 15.9097C22.1106 15.9997 21.8106 15.9097 21.6206 15.6997C21.4306 15.4897 21.3706 15.1897 21.4806 14.9197C21.8906 13.8697 22.8906 13.1797 24.0306 13.1797C25.1706 13.1797 26.1706 13.8597 26.5806 14.9197C26.6806 15.1897 26.6306 15.4897 26.4406 15.6997C26.2906 15.8597 26.0806 15.9397 25.8806 15.9397Z" fill="#949494"/>
<path d="M24.0195 34.8105C23.0295 34.8105 22.0695 34.4105 21.3695 33.7105C20.6695 33.0105 20.2695 32.0505 20.2695 31.0605H21.7695C21.7695 31.6505 22.0095 32.2305 22.4295 32.6505C22.8495 33.0705 23.4295 33.3105 24.0195 33.3105C25.2595 33.3105 26.2695 32.3005 26.2695 31.0605H27.7695C27.7695 33.1305 26.0895 34.8105 24.0195 34.8105Z" fill="#949494"/>
</svg>
