<svg width="56" height="56" viewBox="0 0 56 56" fill="none" xmlns="http://www.w3.org/2000/svg">
<path d="M14 0C12.075 0 10.5 1.575 10.5 3.5V52.5C10.5 54.425 12.075 56 14 56H49C50.925 56 52.5 54.425 52.5 52.5V14L38.5 0H14Z" fill="#E2E5E7"/>
<path d="M42 14H52.5L38.5 0V10.5C38.5 12.425 40.075 14 42 14Z" fill="#B0B7BD"/>
<path d="M52.5 24.5L42 14H52.5V24.5Z" fill="#CAD1D8"/>
<path d="M45.5 45.5C45.5 46.4625 44.7125 47.25 43.75 47.25H5.25C4.2875 47.25 3.5 46.4625 3.5 45.5V28C3.5 27.0375 4.2875 26.25 5.25 26.25H43.75C44.7125 26.25 45.5 27.0375 45.5 28V45.5Z" fill="#F15642"/>
<path d="M11.1289 33.1574C11.1289 32.6954 11.4929 32.1914 12.0792 32.1914H15.3114C17.1314 32.1914 18.7694 33.4094 18.7694 35.7439C18.7694 37.9559 17.1314 39.1879 15.3114 39.1879H12.9752V41.0359C12.9752 41.6519 12.5832 42.0002 12.0792 42.0002C11.6172 42.0002 11.1289 41.6519 11.1289 41.0359V33.1574ZM12.9752 33.9537V37.4397H15.3114C16.2494 37.4397 16.9914 36.6119 16.9914 35.7439C16.9914 34.7657 16.2494 33.9537 15.3114 33.9537H12.9752Z" fill="white"/>
<path d="M21.509 42.0011C21.047 42.0011 20.543 41.7491 20.543 41.1349V33.1864C20.543 32.6841 21.047 32.3184 21.509 32.3184H24.7132C31.1077 32.3184 30.9677 42.0011 24.8392 42.0011H21.509ZM22.391 34.0264V40.2949H24.7132C28.4915 40.2949 28.6595 34.0264 24.7132 34.0264H22.391Z" fill="white"/>
<path d="M33.2368 34.1382V36.3624H36.805C37.309 36.3624 37.813 36.8664 37.813 37.3547C37.813 37.8167 37.309 38.1947 36.805 38.1947H33.2368V41.1329C33.2368 41.6229 32.8885 41.9992 32.3985 41.9992C31.7825 41.9992 31.4062 41.6229 31.4062 41.1329V33.1844C31.4062 32.6822 31.7843 32.3164 32.3985 32.3164H37.3108C37.9268 32.3164 38.2908 32.6822 38.2908 33.1844C38.2908 33.6324 37.9268 34.1364 37.3108 34.1364H33.2368V34.1382Z" fill="white"/>
<path d="M43.75 47.25H10.5V49H43.75C44.7125 49 45.5 48.2125 45.5 47.25V45.5C45.5 46.4625 44.7125 47.25 43.75 47.25Z" fill="#CAD1D8"/>
</svg>
