<svg width="310" height="63" viewBox="0 0 310 63" fill="none" xmlns="http://www.w3.org/2000/svg">
<path d="M94.781 17.5035C94.378 18.1925 93.7906 18.7561 93.0847 19.131C92.2872 19.5376 91.4005 19.7384 90.5053 19.7153H84.5796V10.4646H90.5053C91.4011 10.4407 92.2884 10.6433 93.0847 11.0535C93.7894 11.428 94.3765 11.9897 94.781 12.6764C95.1999 13.4201 95.4102 14.2626 95.3899 15.1155C95.4065 15.9517 95.1961 16.7768 94.781 17.5035ZM100.823 20.9579C101.918 19.2094 102.469 17.1764 102.408 15.1155C102.479 13.0378 101.944 10.9842 100.869 9.20341C99.8466 7.61035 98.3754 6.35384 96.6401 5.59126C94.6926 4.74781 92.5861 4.33191 90.4634 4.37176H77.5664V37.9939H84.5796V25.8081H89.5525L96.3845 37.9939H104.257L96.5657 24.6118C98.3037 23.8325 99.78 22.5705 100.818 20.9765" fill="#1C3557"/>
<path d="M113.396 19.0846C114.294 18.4972 115.352 18.1979 116.426 18.2268C117.511 18.1913 118.58 18.4997 119.479 19.1078C120.307 19.6942 120.919 20.5345 121.222 21.5005C121.332 21.8598 121.404 22.2297 121.436 22.604H111.211C111.285 22.2673 111.381 21.9358 111.499 21.6118C111.852 20.5917 112.517 19.7078 113.4 19.0846M125.224 35.694C126.229 34.8408 127.012 33.7573 127.506 32.5363L122.077 29.9628C121.604 30.7981 120.908 31.4853 120.065 31.9474C119.049 32.4512 117.926 32.7001 116.792 32.6727C115.658 32.6452 114.548 32.3421 113.558 31.7897C112.623 31.2085 111.895 30.3488 111.476 29.3322C111.242 28.7687 111.085 28.1759 111.011 27.5702H128.31C128.441 27.1831 128.524 26.7813 128.556 26.3738C128.603 25.9102 128.626 25.4465 128.626 24.955C128.64 23.332 128.365 21.7195 127.812 20.1929C127.286 18.7607 126.479 17.4476 125.438 16.3303C124.366 15.1995 123.061 14.315 121.613 13.7383C119.956 13.0932 118.19 12.7781 116.412 12.8109C114.187 12.7769 111.995 13.3544 110.077 14.4802C108.222 15.5901 106.691 17.1647 105.634 19.0475C104.514 21.0614 103.945 23.3338 103.984 25.6366C103.959 27.8988 104.504 30.1311 105.569 32.1282C106.604 34.0646 108.152 35.6799 110.045 36.7976C112.12 37.9886 114.484 38.5854 116.877 38.5225C118.457 38.5389 120.028 38.288 121.524 37.7806C122.875 37.3199 124.126 36.607 125.21 35.6801" fill="#1C3557"/>
<path d="M146.417 37.5674C147.749 36.989 148.899 36.0612 149.744 34.8826C150.555 33.7018 150.974 32.2976 150.944 30.8671C150.989 29.2182 150.408 27.613 149.317 26.3739C148.037 25.0395 146.405 24.0928 144.609 23.6428L140.677 22.4696C140.155 22.3212 139.648 22.1257 139.162 21.8854C138.812 21.7213 138.508 21.4727 138.279 21.162C138.095 20.8882 138.001 20.5642 138.009 20.2346C137.999 19.9443 138.061 19.656 138.191 19.396C138.321 19.136 138.514 18.9126 138.753 18.7462C139.364 18.3526 140.085 18.1626 140.812 18.2037C141.964 18.1842 143.097 18.507 144.065 19.1311C144.979 19.7059 145.672 20.5719 146.031 21.5886L151.055 19.2423C150.349 17.2596 148.982 15.5786 147.184 14.4803C145.269 13.3276 143.066 12.7407 140.83 12.7878C139.151 12.7552 137.484 13.0875 135.946 13.7615C134.616 14.3341 133.473 15.2635 132.641 16.4463C131.843 17.6317 131.433 19.0343 131.466 20.4619C131.435 22.1216 132.016 23.735 133.097 24.9967C134.329 26.3708 135.949 27.3407 137.744 27.7789L141.95 28.952C142.425 29.0727 142.881 29.2551 143.308 29.4945C143.627 29.664 143.904 29.9015 144.121 30.1901C144.307 30.4629 144.403 30.7873 144.395 31.1175C144.409 31.4302 144.346 31.7416 144.211 32.0245C144.077 32.3074 143.875 32.5531 143.624 32.7404C142.964 33.1872 142.174 33.4011 141.379 33.3478C140.085 33.3581 138.821 32.9641 137.763 32.221C136.642 31.428 135.752 30.3528 135.184 29.105L130.225 31.4513C130.937 33.6007 132.385 35.4312 134.314 36.6215C136.436 37.922 138.889 38.5823 141.379 38.5226C143.104 38.5631 144.817 38.2326 146.403 37.5535" fill="#1C3557"/>
<path d="M162.521 19.0846C163.418 18.4981 164.474 18.1988 165.546 18.2268C166.632 18.1913 167.701 18.4997 168.6 19.1078C169.427 19.6942 170.039 20.5345 170.343 21.5005C170.452 21.8598 170.524 22.2297 170.556 22.604H160.332C160.405 22.2673 160.502 21.9358 160.62 21.6118C160.973 20.5917 161.638 19.7078 162.521 19.0846ZM171.207 29.9628C170.731 30.7972 170.033 31.4841 169.19 31.9474C168.174 32.4512 167.051 32.7001 165.917 32.6727C164.783 32.6452 163.673 32.3421 162.683 31.7898C161.75 31.2071 161.022 30.3478 160.601 29.3322C160.367 28.7687 160.21 28.1759 160.136 27.5702H177.435C177.568 27.1837 177.651 26.7816 177.681 26.3738C177.728 25.9102 177.751 25.4465 177.751 24.955C177.765 23.332 177.49 21.7195 176.937 20.1929C176.411 18.7607 175.604 17.4476 174.563 16.3303C173.491 15.1995 172.186 14.315 170.738 13.7383C169.081 13.0932 167.315 12.7781 165.537 12.8109C163.312 12.7769 161.12 13.3544 159.202 14.4802C157.347 15.5901 155.816 17.1647 154.759 19.0475C153.639 21.0614 153.07 23.3338 153.109 25.6366C153.084 27.8988 153.629 30.1311 154.694 32.1282C155.729 34.0658 157.279 35.6814 159.174 36.7976C161.25 37.991 163.616 38.588 166.011 38.5225C167.591 38.5389 169.163 38.288 170.659 37.7806C172.009 37.3199 173.26 36.607 174.344 35.6801C175.349 34.8269 176.132 33.7434 176.626 32.5224L171.207 29.9628Z" fill="#1C3557"/>
<path d="M187.627 3.8291H180.842V37.9938H187.627V3.8291Z" fill="#1C3557"/>
<path d="M198.483 3.8291H191.697V37.9938H198.483V3.8291Z" fill="#1C3557"/>
<path d="M210.967 19.0849C211.866 18.4974 212.923 18.1981 213.997 18.2271C215.083 18.1915 216.152 18.4999 217.051 19.1081C217.878 19.6944 218.49 20.5347 218.794 21.5007C218.903 21.86 218.975 22.23 219.007 22.6043H208.769C208.843 22.2675 208.939 21.936 209.057 21.612C209.41 20.5919 210.075 19.708 210.958 19.0849M207.611 36.7978C209.687 37.9912 212.053 38.5882 214.448 38.5228C216.028 38.5391 217.6 38.2883 219.096 37.7809C220.447 37.3201 221.697 36.6073 222.781 35.6803C223.786 34.826 224.57 33.7429 225.068 32.5226L219.639 29.9491C219.164 30.7823 218.468 31.4689 217.627 31.9337C216.611 32.4375 215.488 32.6865 214.354 32.659C213.22 32.6315 212.11 32.3284 211.12 31.7761C210.185 31.1948 209.457 30.3352 209.038 29.3185C208.804 28.755 208.647 28.1622 208.574 27.5565H225.872C226.003 27.1695 226.086 26.7676 226.118 26.3602C226.165 25.8965 226.188 25.4328 226.188 24.9413C226.202 23.3183 225.927 21.7058 225.375 20.1792C224.848 18.747 224.041 17.4339 223 16.3167C221.928 15.1858 220.623 14.3013 219.175 13.7246C217.518 13.0795 215.752 12.7644 213.974 12.7972C211.749 12.7639 209.558 13.3414 207.639 14.4665C205.78 15.5778 204.246 17.1578 203.192 19.0478C202.068 21.0604 201.497 23.3334 201.537 25.6368C201.512 27.899 202.057 30.1313 203.122 32.1285C204.157 34.066 205.707 35.6816 207.602 36.7978" fill="#1C3557"/>
<path d="M236.073 24.7274C236.073 22.8912 236.585 21.4692 237.611 20.4614C238.145 19.9521 238.777 19.5557 239.469 19.296C240.16 19.0362 240.897 18.9185 241.636 18.9498H243.76V13.0841H242.314C240.756 13.0425 239.215 13.4239 237.857 14.1877C236.813 14.8611 236.025 15.8632 235.617 17.0348V13.3531H229.287V37.9936H236.073V24.7274Z" fill="#1C3557"/>
<path d="M273.254 25.6278C272.732 26.9435 271.94 28.1359 270.93 29.1286C269.934 30.1037 268.758 30.8769 267.467 31.4053C264.722 32.4887 261.666 32.4887 258.92 31.4053C257.628 30.8792 256.452 30.1057 255.458 29.1286C254.446 28.1372 253.654 26.9444 253.134 25.6278C252.577 24.2054 252.299 22.6894 252.316 21.1624C252.311 19.6435 252.601 18.138 253.171 16.7295C253.691 15.422 254.473 14.234 255.468 13.2382C256.464 12.2423 257.653 11.4597 258.962 10.9381C261.714 9.88715 264.758 9.88715 267.509 10.9381C268.81 11.4649 269.99 12.25 270.977 13.2455C271.965 14.2411 272.739 15.4264 273.254 16.7295C273.811 18.1452 274.087 19.6555 274.067 21.1763C274.085 22.7031 273.809 24.2191 273.254 25.6417M275.991 8.80972C274.358 7.2251 272.428 5.97717 270.312 5.13729C265.74 3.38783 260.681 3.38783 256.109 5.13729C253.996 5.97283 252.068 7.21428 250.434 8.79117C248.821 10.3527 247.543 12.2254 246.679 14.2952C245.775 16.4696 245.321 18.8039 245.345 21.1578C245.306 24.6158 246.32 28.0041 248.254 30.8741C250.187 33.744 252.949 35.9603 256.174 37.2293C260.716 38.9729 265.746 38.9729 270.288 37.2293C273.508 35.9565 276.265 33.7395 278.195 30.8709C280.125 28.0023 281.137 24.6172 281.099 21.1624C281.12 18.8088 280.666 16.4749 279.765 14.2998C278.899 12.2309 277.621 10.3586 276.01 8.79581" fill="#1C3557"/>
<path d="M301.343 19.0847L294.874 17.0074C293.986 16.7654 293.182 16.2841 292.55 15.6163C292.047 15.0526 291.773 14.3215 291.783 13.5668C291.77 12.8812 291.975 12.2092 292.369 11.6471C292.791 11.0666 293.372 10.6192 294.042 10.358C294.834 10.0421 295.68 9.88453 296.533 9.89435C298.084 9.87207 299.603 10.3377 300.874 11.2251C302.165 12.1467 303.156 13.4272 303.723 14.9068L309.421 12.3334C308.83 10.6236 307.864 9.0666 306.595 7.77529C305.329 6.5 303.811 5.50057 302.138 4.84013C300.354 4.13654 298.451 3.78384 296.533 3.80146C294.434 3.7607 292.353 4.19343 290.445 5.06734C288.771 5.83389 287.346 7.05314 286.332 8.58674C285.333 10.1485 284.821 11.97 284.858 13.8218C284.808 15.9379 285.532 17.9999 286.894 19.6226C288.251 21.2331 290.273 22.4696 292.959 23.3321L299.582 25.5393C300.442 25.7706 301.222 26.2306 301.841 26.87C302.324 27.426 302.583 28.1419 302.566 28.8778C302.578 29.5432 302.372 30.1944 301.98 30.7326C301.556 31.2831 300.993 31.7119 300.349 31.9753C299.561 32.2985 298.714 32.4564 297.862 32.439C296.079 32.4558 294.336 31.9035 292.889 30.8624C291.353 29.7583 290.143 28.2625 289.385 26.5315L283.641 29.105C284.267 30.9722 285.293 32.681 286.648 34.1129C287.996 35.5312 289.631 36.6471 291.444 37.3865C293.336 38.1563 295.363 38.5424 297.407 38.5226C299.567 38.57 301.71 38.1309 303.676 37.2382C305.382 36.4509 306.843 35.219 307.906 33.6724C308.934 32.1302 309.469 30.3127 309.439 28.4605C309.49 26.3778 308.774 24.3487 307.427 22.7571C306.088 21.196 304.061 19.9781 301.343 19.1032" fill="#1C3557"/>
<path d="M81.8887 53.133L84.6772 45.1019L87.4658 53.133H81.8887ZM83.3991 42.6953L77.5664 58.9245H79.8623L81.1915 55.1129H88.135L89.4689 58.9245H91.7601L85.9321 42.6953H83.3991Z" fill="#1C3557"/>
<path d="M96.2268 49.4102C96.8028 49.0448 97.473 48.8546 98.1555 48.8631C98.8549 48.8506 99.5412 49.0529 100.121 49.4427C100.675 49.8104 101.113 50.3263 101.386 50.9311L103.198 50.064C102.965 49.4375 102.584 48.8762 102.087 48.4272C101.567 47.9569 100.968 47.5818 100.317 47.319C99.6312 47.038 98.8965 46.8961 98.1555 46.9016C97.1014 46.8797 96.0614 47.1465 95.1486 47.6729C94.2358 48.1994 93.4851 48.9655 92.9781 49.8878C92.4584 50.8517 92.1959 51.9327 92.2159 53.027C92.1998 54.1194 92.4621 55.198 92.9781 56.1615C93.469 57.0725 94.1982 57.8336 95.0881 58.3641C96.0159 58.9115 97.0779 59.1908 98.1555 59.1709C98.8965 59.1764 99.6312 59.0345 100.317 58.7536C100.97 58.4893 101.57 58.1091 102.087 57.6314C102.58 57.1844 102.96 56.6286 103.198 56.0085L101.386 55.0811C101.123 55.7048 100.684 56.2383 100.121 56.6159C99.5428 57.0106 98.8564 57.2178 98.1555 57.2095C97.4714 57.2188 96.7994 57.0286 96.2221 56.6623C95.6407 56.2959 95.1687 55.7802 94.8557 55.1692C94.5256 54.504 94.3538 53.7717 94.3538 53.0293C94.3538 52.287 94.5256 51.5546 94.8557 50.8894C95.1732 50.2852 95.6444 49.7751 96.2221 49.4102" fill="#1C3557"/>
<path d="M108.957 49.4098C109.534 49.044 110.206 48.8539 110.89 48.8627C111.589 48.8502 112.276 49.0526 112.856 49.4423C113.409 49.8111 113.849 50.3265 114.125 50.9307L115.937 50.0636C115.701 49.4373 115.319 48.8761 114.822 48.4268C114.301 47.9566 113.702 47.5814 113.051 47.3186C112.366 47.0376 111.631 46.8958 110.89 46.9013C109.812 46.8826 108.751 47.1618 107.823 47.7081C106.938 48.2337 106.211 48.9863 105.717 49.8874C105.194 50.8501 104.93 51.9317 104.95 53.0266C104.934 54.1196 105.198 55.1987 105.717 56.1612C106.205 57.0727 106.933 57.8343 107.823 58.3637C108.751 58.91 109.812 59.1892 110.89 59.1705C111.631 59.176 112.366 59.0342 113.051 58.7532C113.704 58.4889 114.304 58.1087 114.822 57.6311C115.315 57.1843 115.697 56.6285 115.937 56.0081L114.125 55.0808C113.859 55.7039 113.419 56.237 112.856 56.6156C112.276 57.0053 111.589 57.2076 110.89 57.1952C110.206 57.204 109.534 57.0138 108.957 56.648C108.377 56.2813 107.906 55.7656 107.595 55.155C107.265 54.4897 107.093 53.7574 107.093 53.015C107.093 52.2727 107.265 51.5404 107.595 50.8751C107.91 50.2711 108.38 49.7609 108.957 49.3959" fill="#1C3557"/>
<path d="M121.524 49.234C122.083 48.8899 122.727 48.7084 123.383 48.71C124.027 48.7008 124.659 48.8794 125.202 49.2237C125.746 49.568 126.176 50.0631 126.441 50.6482C126.617 51.0392 126.709 51.4625 126.711 51.8909H119.861C119.914 51.4874 120.03 51.0947 120.204 50.727C120.488 50.1109 120.947 49.5916 121.524 49.234ZM127.436 48.6358C126.953 48.1014 126.367 47.6707 125.712 47.3699C124.98 47.0495 124.187 46.8913 123.388 46.9062C122.361 46.8916 121.35 47.1681 120.474 47.7038C119.609 48.2316 118.9 48.9788 118.42 49.8692C117.921 50.8423 117.66 51.9199 117.66 53.013C117.66 54.1062 117.921 55.1837 118.42 56.1569C118.908 57.0827 119.645 57.8548 120.548 58.387C121.45 58.9193 122.484 59.1906 123.532 59.1708C124.289 59.1807 125.041 59.0486 125.749 58.7813C126.384 58.5376 126.968 58.1792 127.473 57.7241C127.934 57.3168 128.302 56.8156 128.551 56.2542L126.85 55.3825C126.523 55.9378 126.075 56.413 125.54 56.7736C124.948 57.1503 124.257 57.3395 123.555 57.3161C122.859 57.3222 122.174 57.1377 121.575 56.7828C120.974 56.4284 120.489 55.9062 120.181 55.2805C119.926 54.768 119.785 54.2065 119.768 53.6344H128.83C128.858 53.4628 128.881 53.2773 128.905 53.078C128.926 52.901 128.937 52.7229 128.937 52.5447C128.937 51.8274 128.808 51.116 128.556 50.4442C128.308 49.7787 127.938 49.1654 127.464 48.6358" fill="#1C3557"/>
<path d="M133.166 42.4131H131.135V58.9065H133.166V42.4131Z" fill="#1C3557"/>
<path d="M139.237 49.2339C139.795 48.8891 140.439 48.7076 141.096 48.7099C141.738 48.7016 142.37 48.8806 142.912 49.2249C143.454 49.5691 143.884 50.0637 144.149 50.6481C144.324 51.0395 144.417 51.4623 144.423 51.8908H137.573C137.627 51.488 137.741 51.0957 137.912 50.7269C138.197 50.1105 138.658 49.5913 139.237 49.2339ZM145.162 48.6357C144.681 48.1003 144.094 47.6694 143.438 47.3698C142.599 47.0122 141.688 46.8557 140.778 46.9129C139.867 46.97 138.983 47.2393 138.196 47.6991C137.332 48.2272 136.625 48.9744 136.146 49.8645C135.648 50.838 135.389 51.9154 135.389 53.0083C135.389 54.1012 135.648 55.1786 136.146 56.1521C136.634 57.0779 137.371 57.8501 138.274 58.3823C139.177 58.9145 140.21 59.1859 141.258 59.1661C142.015 59.177 142.768 59.0448 143.475 58.7766C144.111 58.5339 144.695 58.1754 145.199 57.7194C145.662 57.3123 146.031 56.811 146.282 56.2495L144.577 55.3778C144.249 55.9318 143.803 56.4068 143.271 56.7688C142.678 57.1457 141.984 57.3348 141.282 57.3113C140.587 57.3173 139.903 57.1328 139.306 56.7781C138.706 56.422 138.222 55.9002 137.912 55.2757C137.659 54.7626 137.518 54.2014 137.498 53.6296H146.505C146.533 53.4581 146.561 53.2726 146.58 53.0732C146.601 52.8963 146.612 52.7182 146.612 52.54C146.615 51.8225 146.485 51.1106 146.231 50.4395C145.983 49.774 145.613 49.1607 145.139 48.6311" fill="#1C3557"/>
<path d="M151.877 47.5225C151.44 47.7753 151.079 48.1404 150.831 48.5797V47.1887H148.842V58.9247H150.873V51.9137C150.848 51.5166 150.902 51.1185 151.033 50.7427C151.164 50.3669 151.368 50.021 151.635 49.7251C151.899 49.4652 152.214 49.2623 152.56 49.1291C152.907 48.9959 153.277 48.9352 153.647 48.9507H154.67V47.0357H153.949C153.23 47.0063 152.515 47.1662 151.877 47.4993" fill="#1C3557"/>
<path d="M162.957 55.7019C162.651 56.2354 162.206 56.6761 161.669 56.9771C161.078 57.3009 160.41 57.461 159.736 57.4408C159.212 57.4643 158.698 57.2998 158.286 56.9771C158.103 56.8357 157.956 56.6543 157.855 56.4467C157.754 56.2392 157.703 56.0113 157.705 55.7808C157.699 55.5423 157.742 55.3052 157.831 55.0837C157.92 54.8622 158.052 54.6608 158.221 54.4917C158.685 54.0901 159.26 53.8394 159.871 53.773L163.431 53.1795V53.926C163.441 54.5521 163.28 55.1693 162.966 55.7112M163.287 47.4251C162.543 47.0692 161.727 46.8929 160.902 46.9104C160.216 46.9097 159.535 47.0355 158.895 47.2813C158.276 47.5141 157.706 47.8584 157.212 48.2968C156.756 48.6918 156.398 49.1871 156.166 49.7435L157.933 50.6709C158.173 50.1155 158.573 49.643 159.081 49.3123C159.608 48.9658 160.229 48.7864 160.861 48.7976C161.533 48.7681 162.193 48.9822 162.72 49.4004C162.949 49.5879 163.133 49.8255 163.256 50.0947C163.379 50.364 163.439 50.6578 163.431 50.9537V51.4916L159.41 52.1547C158.646 52.2614 157.909 52.5133 157.24 52.8966C156.708 53.1978 156.269 53.6389 155.971 54.1718C155.697 54.6917 155.558 55.2721 155.567 55.8596C155.555 56.4734 155.73 57.0764 156.069 57.5892C156.418 58.1008 156.9 58.5079 157.463 58.7669C158.104 59.0612 158.803 59.207 159.508 59.1935C160.141 59.2004 160.77 59.0968 161.367 58.8875C161.907 58.6983 162.41 58.4175 162.854 58.0575C163.088 57.8598 163.3 57.6375 163.486 57.3944V58.9246H165.476V50.9491C165.49 50.2075 165.289 49.4777 164.895 48.8486C164.498 48.2469 163.944 47.7656 163.291 47.4575" fill="#1C3557"/>
<path d="M173.145 57.1865C172.744 57.2042 172.346 57.1179 171.988 56.9362C171.71 56.7822 171.491 56.5409 171.365 56.2499C171.236 55.9239 171.173 55.5756 171.179 55.2251V49.1044H173.824V47.1662H171.179V44.4629H169.153V45.4227C169.164 45.6532 169.128 45.8835 169.048 46.1001C168.968 46.3167 168.846 46.5152 168.688 46.684C168.525 46.8437 168.329 46.9675 168.115 47.0473C167.9 47.1272 167.671 47.1614 167.443 47.1477H167.006V49.0859H169.148V55.2715C169.081 56.2845 169.415 57.2835 170.078 58.0536C170.427 58.3932 170.843 58.6558 171.301 58.8244C171.758 58.9929 172.245 59.0637 172.732 59.032C172.89 59.032 173.09 59.032 173.322 58.9996C173.535 58.9839 173.746 58.9514 173.954 58.9022V57.117L173.531 57.1587C173.403 57.1665 173.274 57.1665 173.145 57.1587" fill="#1C3557"/>
<path d="M179.196 49.2339C179.754 48.8891 180.398 48.7076 181.055 48.7099C181.697 48.7016 182.329 48.8806 182.871 49.2249C183.413 49.5691 183.843 50.0637 184.108 50.6481C184.285 51.0388 184.379 51.4621 184.382 51.8908H177.532C177.586 51.488 177.7 51.0957 177.871 50.7269C178.158 50.1114 178.618 49.5925 179.196 49.2339ZM185.121 48.6357C184.64 48.1003 184.053 47.6694 183.397 47.3698C182.558 47.0122 181.647 46.8557 180.737 46.9129C179.826 46.97 178.942 47.2393 178.155 47.6991C177.291 48.2272 176.584 48.9744 176.105 49.8645C175.607 50.838 175.348 51.9154 175.348 53.0083C175.348 54.1012 175.607 55.1786 176.105 56.1521C176.593 57.0779 177.33 57.8501 178.233 58.3823C179.136 58.9145 180.169 59.1859 181.217 59.1661C181.974 59.177 182.726 59.0448 183.434 58.7766C184.07 58.5339 184.654 58.1754 185.158 57.7194C185.621 57.3123 185.99 56.811 186.241 56.2495L184.536 55.3778C184.208 55.9318 183.762 56.4068 183.23 56.7688C182.637 57.1457 181.943 57.3348 181.241 57.3113C180.546 57.3173 179.862 57.1328 179.265 56.7781C178.665 56.422 178.181 55.9002 177.871 55.2757C177.619 54.7622 177.48 54.2011 177.462 53.6296H186.464C186.492 53.4581 186.52 53.2726 186.539 53.0732C186.56 52.8963 186.571 52.7182 186.571 52.54C186.574 51.8225 186.444 51.1106 186.19 50.4395C185.942 49.774 185.572 49.1607 185.098 48.6311" fill="#1C3557"/>
<path d="M199.473 50.259L196.741 49.4522C196.074 49.2713 195.475 48.9008 195.016 48.3857C194.646 47.9386 194.445 47.3755 194.449 46.7953C194.444 46.3291 194.575 45.8714 194.826 45.4784C195.077 45.0998 195.434 44.8031 195.853 44.6252C196.34 44.4224 196.864 44.3229 197.391 44.3331C198.276 44.299 199.148 44.5515 199.877 45.053C200.606 45.5545 201.152 46.278 201.435 47.1152L203.266 46.3548C203.008 45.603 202.591 44.9153 202.044 44.3377C201.473 43.7426 200.786 43.2694 200.027 42.9466C199.188 42.5892 198.284 42.4107 197.373 42.4227C196.468 42.4075 195.573 42.6062 194.761 43.0023C194.028 43.3547 193.408 43.9018 192.967 44.5835C192.532 45.2862 192.309 46.0993 192.326 46.9251C192.311 47.9066 192.64 48.8624 193.255 49.6284C193.958 50.4653 194.903 51.066 195.96 51.3487L198.953 52.2761C199.59 52.4277 200.175 52.7481 200.645 53.2035C200.843 53.4227 200.996 53.6789 201.095 53.9575C201.194 54.236 201.237 54.5313 201.221 54.8264C201.23 55.2914 201.089 55.7469 200.817 56.1247C200.531 56.5092 200.143 56.8063 199.697 56.9825C199.162 57.1964 198.59 57.3005 198.014 57.2886C197.033 57.3104 196.072 57.0161 195.272 56.4493C194.455 55.844 193.842 55.0045 193.515 54.0428L191.656 54.8078C191.918 55.6384 192.357 56.4024 192.944 57.0475C193.549 57.7254 194.294 58.2648 195.128 58.6286C196.021 59.0202 196.988 59.2162 197.963 59.2036C198.924 59.2217 199.877 59.0253 200.752 58.6286C201.519 58.2776 202.176 57.7245 202.652 57.0289C203.113 56.3302 203.353 55.5096 203.34 54.6734C203.369 53.6822 203.018 52.7174 202.36 51.9747C201.561 51.164 200.557 50.584 199.455 50.2961" fill="#1C3557"/>
<path d="M212.398 55.7019C212.086 56.2365 211.634 56.6771 211.092 56.977C210.502 57.3002 209.836 57.4603 209.163 57.4407C208.638 57.465 208.122 57.3004 207.708 56.977C207.526 56.8355 207.38 56.6538 207.28 56.4463C207.18 56.2387 207.129 56.011 207.132 55.7807C207.126 55.5426 207.168 55.3057 207.256 55.0842C207.344 54.8627 207.476 54.6612 207.643 54.4917C208.107 54.0901 208.683 53.8394 209.293 53.7729L212.853 53.1794V53.926C212.862 54.5518 212.701 55.1684 212.389 55.7112M212.705 47.425C211.963 47.0695 211.148 46.8932 210.325 46.9103C209.637 46.9091 208.955 47.0348 208.313 47.2813C207.695 47.5131 207.126 47.8574 206.635 48.2968C206.176 48.6904 205.816 49.1859 205.584 49.7435L207.355 50.6708C207.593 50.1148 207.991 49.6419 208.498 49.3122C209.026 48.9657 209.647 48.7863 210.279 48.7975C210.951 48.7681 211.611 48.9822 212.138 49.4003C212.367 49.5879 212.551 49.8254 212.674 50.0947C212.797 50.3639 212.857 50.6578 212.849 50.9537V51.4916L208.828 52.1547C208.064 52.2614 207.327 52.5132 206.658 52.8966C206.126 53.1978 205.687 53.6388 205.389 54.1717C205.115 54.6916 204.976 55.272 204.985 55.8595C204.973 56.4734 205.148 57.0763 205.487 57.5891C205.835 58.1013 206.317 58.5087 206.881 58.7669C207.52 59.0614 208.218 59.2072 208.921 59.1935C209.554 59.2004 210.183 59.0968 210.78 58.8874C211.32 58.6982 211.823 58.4174 212.268 58.0574C212.502 57.8598 212.714 57.6374 212.9 57.3944V58.9245H214.889V50.9491C214.904 50.2075 214.702 49.4776 214.308 48.8485C213.912 48.2468 213.357 47.7656 212.705 47.4575" fill="#1C3557"/>
<path d="M219.635 42.4131H217.604V58.9065H219.635V42.4131Z" fill="#1C3557"/>
<path d="M225.703 49.234C226.262 48.8899 226.906 48.7084 227.562 48.71C228.206 48.7008 228.838 48.8794 229.381 49.2237C229.925 49.568 230.355 50.0631 230.62 50.6482C230.796 51.0392 230.888 51.4625 230.89 51.8909H224.044C224.096 51.4877 224.21 51.095 224.383 50.727C224.667 50.1109 225.126 49.5916 225.703 49.234ZM231.634 48.6358C231.151 48.1014 230.564 47.6707 229.909 47.3699C229.178 47.0495 228.385 46.8913 227.586 46.9062C226.558 46.8921 225.548 47.1686 224.672 47.7038C223.807 48.2305 223.1 48.9781 222.622 49.8692C222.104 50.8336 221.843 51.9146 221.864 53.0084C221.849 54.1057 222.113 55.1889 222.631 56.1569C223.12 57.0827 223.856 57.8548 224.759 58.387C225.662 58.9193 226.695 59.1906 227.744 59.1708C228.501 59.1807 229.253 59.0486 229.961 58.7813C230.595 58.5376 231.18 58.1792 231.685 57.7241C232.145 57.3157 232.514 56.8148 232.768 56.2542L231.076 55.3779C230.748 55.9331 230.301 56.4084 229.765 56.7689C229.174 57.1457 228.482 57.3348 227.781 57.3114C227.086 57.3181 226.402 57.1336 225.806 56.7782C225.203 56.4246 224.718 55.9022 224.411 55.2758C224.158 54.7627 224.017 54.2015 223.998 53.6297H233.005C233.033 53.4582 233.056 53.2727 233.079 53.0733C233.101 52.8964 233.111 52.7183 233.112 52.5401C233.114 51.8226 232.985 51.1107 232.731 50.4396C232.483 49.7741 232.112 49.1608 231.638 48.6312" fill="#1C3557"/>
<path d="M240.772 52.3734L238.852 51.803C238.607 51.7274 238.367 51.6376 238.132 51.5341C237.887 51.4311 237.669 51.2723 237.495 51.0704C237.315 50.8375 237.223 50.5484 237.235 50.2543C237.232 50.0398 237.278 49.8274 237.369 49.633C237.46 49.4387 237.593 49.2674 237.76 49.1322C238.155 48.8163 238.649 48.6517 239.155 48.6685C239.786 48.6605 240.404 48.8467 240.925 49.2017C241.45 49.559 241.859 50.0619 242.101 50.6484L243.765 49.888C243.441 48.9781 242.821 48.2027 242.004 47.6855C241.169 47.1614 240.201 46.8893 239.215 46.9018C238.497 46.8921 237.786 47.0409 237.133 47.3377C236.546 47.6042 236.04 48.0219 235.669 48.5479C235.306 49.0837 235.119 49.719 235.134 50.3656C235.123 51.0943 235.383 51.8013 235.864 52.3502C236.497 52.9998 237.303 53.4538 238.188 53.6578L239.959 54.1586C240.222 54.226 240.479 54.3176 240.725 54.4321C240.994 54.5478 241.234 54.7184 241.432 54.9329C241.534 55.0457 241.613 55.1774 241.664 55.3207C241.715 55.4639 241.737 55.6158 241.729 55.7676C241.732 56.0044 241.676 56.2383 241.566 56.448C241.456 56.6577 241.294 56.8366 241.097 56.9685C240.628 57.2899 240.067 57.4524 239.498 57.4322C238.803 57.4368 238.123 57.2226 237.556 56.8201C236.954 56.399 236.474 55.8284 236.162 55.1648L234.549 55.9484C234.895 56.9143 235.548 57.7412 236.408 58.304C237.197 58.7854 238.088 59.0757 239.01 59.1514C239.931 59.2271 240.858 59.0861 241.715 58.7398C242.32 58.476 242.84 58.0528 243.221 57.5157C243.615 56.937 243.804 56.244 243.759 55.5461C243.713 54.8482 243.436 54.1853 242.97 53.6624C242.358 53.0346 241.582 52.5898 240.73 52.378" fill="#1C3557"/>
<path d="M8.27627 11.3921L14.1369 5.54495L35.8039 27.1575L14.1369 48.7748L8.27627 42.9276L24.0781 27.1622L8.27627 11.3921ZM0.556641 62.5H41.0789L24.1803 45.4501L42.9008 26.7773L27.099 11.0119L32.9503 5.16009L54.6173 26.7773L35.8783 45.4779L52.7443 62.4954H62.7134V0.5H0.556641V62.5Z" fill="#467C9D"/>
</svg>
