<svg width="90" height="74" viewBox="0 0 90 74" fill="none" xmlns="http://www.w3.org/2000/svg">
<g clip-path="url(#clip0_2024_15953)">
<path d="M80.3896 8.45084V65.5853C80.3896 72.5336 75.9956 78.1553 70.5647 78.1553H4.47144C3.57785 78.1553 2.72089 78.018 1.93457 77.6983C-2.28089 76.2814 -5.35352 71.3903 -5.35352 65.5853V8.45084C-5.35352 1.50258 -0.959466 -4.11914 4.47144 -4.11914H70.5647C75.9956 -4.11914 80.3896 1.50258 80.3896 8.45084Z" fill="#ECEFF1"/>
<path d="M22.2638 16.8983C22.2638 20.3038 19.503 23.0646 16.0975 23.0646C12.6914 23.0646 9.93066 20.3038 9.93066 16.8983C9.93066 13.4922 12.6914 10.7314 16.0975 10.7314C19.503 10.7314 22.2638 13.4922 22.2638 16.8983Z" fill="#FFC107"/>
<path d="M85.1592 53.9433V63.1158C85.1592 69.1522 80.2719 74.0361 74.2315 74.0361H0.720036C-0.273853 74.0361 -1.227 73.9169 -2.10156 73.6391L46.4564 25.1137C49.158 22.4139 53.6086 22.4139 56.3109 25.1137L85.1592 53.9433Z" fill="#388E3C"/>
<path d="M57.626 74.0361H0.798093C-0.195201 74.0361 -1.14777 73.9168 -2.02181 73.6389C-6.7076 72.4071 -10.123 68.1553 -10.123 63.109V61.8772L12.7511 38.9905C15.4517 36.2883 19.8997 36.2883 22.5997 38.9905L57.626 74.0361Z" fill="#4CAF50"/>
</g>
<rect x="53.5" y="38" width="36" height="36" rx="18" fill="#E8EBEE"/>
<path d="M64 59.75V61.625C64 62.1223 64.1975 62.5992 64.5492 62.9508C64.9008 63.3025 65.3777 63.5 65.875 63.5H77.125C77.6223 63.5 78.0992 63.3025 78.4508 62.9508C78.8025 62.5992 79 62.1223 79 61.625V59.75M67.75 52.25L71.5 48.5M71.5 48.5L75.25 52.25M71.5 48.5V59.75" stroke="#1C3557" stroke-width="1.5" stroke-linecap="round" stroke-linejoin="round"/>
<defs>
<clipPath id="clip0_2024_15953">
<rect x="0.5" width="74" height="74" rx="37" fill="white"/>
</clipPath>
</defs>
</svg>
