<svg width="38" height="48" viewBox="0 0 38 48" fill="none" xmlns="http://www.w3.org/2000/svg">
<path d="M36.5 29.25V23.125C36.5 21.0364 35.6703 19.0334 34.1935 17.5565C32.7166 16.0797 30.7136 15.25 28.625 15.25H25.125C24.4288 15.25 23.7611 14.9734 23.2688 14.4812C22.7766 13.9889 22.5 13.3212 22.5 12.625V9.125C22.5 7.03642 21.6703 5.03338 20.1935 3.55653C18.7166 2.07969 16.7136 1.25 14.625 1.25H10.25M12 29.25L19 36.25M19 36.25L26 29.25M19 36.25V22.25M15.5 1.25H4.125C2.676 1.25 1.5 2.426 1.5 3.875V44.125C1.5 45.574 2.676 46.75 4.125 46.75H33.875C35.324 46.75 36.5 45.574 36.5 44.125V22.25C36.5 16.6805 34.2875 11.339 30.3492 7.40076C26.411 3.46249 21.0695 1.25 15.5 1.25Z" stroke="#949494" stroke-width="1.5" stroke-linecap="round" stroke-linejoin="round"/>
</svg>
