<svg width="56" height="57" viewBox="0 0 56 57" fill="none" xmlns="http://www.w3.org/2000/svg">
<g clip-path="url(#clip0_3138_93740)">
<path d="M14 0.5C12.075 0.5 10.5 2.075 10.5 4V53C10.5 54.925 12.075 56.5 14 56.5H49C50.925 56.5 52.5 54.925 52.5 53V14.5L38.5 0.5H14Z" fill="#E2E5E7"/>
<path d="M42 14.5H52.5L38.5 0.5V11C38.5 12.925 40.075 14.5 42 14.5Z" fill="#B0B7BD"/>
<path d="M52.5 25L42 14.5H52.5V25Z" fill="#CAD1D8"/>
<path d="M45.5 46C45.5 46.9625 44.7125 47.75 43.75 47.75H5.25C4.2875 47.75 3.5 46.9625 3.5 46V28.5C3.5 27.5375 4.2875 26.75 5.25 26.75H43.75C44.7125 26.75 45.5 27.5375 45.5 28.5V46Z" fill="#84BD5A"/>
<path d="M15.7855 36.1784L18.2197 33.1281C18.9477 32.1761 20.3617 33.3924 19.5637 34.3024C18.7255 35.2964 17.8435 36.3744 17.0035 37.4786L19.8577 41.0329C20.6277 42.0829 19.0895 43.0891 18.3335 42.0531L15.7575 38.7509L13.2252 42.1249C12.5112 43.1451 10.9292 41.9989 11.7272 41.0469L14.5395 37.4786C13.6575 36.3726 12.8035 35.2964 11.9512 34.3024C11.071 33.2524 12.7072 32.1761 13.3512 33.1579L15.7855 36.1784Z" fill="white"/>
<path d="M21.5859 33.6567C21.5859 33.1947 21.9779 32.8027 22.4679 32.8027C22.9159 32.8027 23.2939 33.1965 23.2939 33.6567V40.6672H27.1002C28.4704 40.6672 28.5002 42.4995 27.1002 42.4995H22.4697C21.9797 42.4995 21.5877 42.1512 21.5877 41.6472V33.6567H21.5859Z" fill="white"/>
<path d="M29.7523 34.9176C30.0743 32.2016 34.1728 31.7134 36.1048 33.1974C37.0568 33.9656 36.0488 35.1836 35.2088 34.5676C34.1728 33.9114 31.8226 33.6034 31.5286 35.0559C31.1506 37.3519 37.2371 36.0376 37.1391 39.7599C37.0411 43.3141 31.8926 43.3964 29.9606 41.8021C29.4968 41.4241 29.5126 40.8099 29.7646 40.4301C30.1286 40.0679 30.5328 39.9419 31.0106 40.3339C32.1568 41.1161 35.1108 41.7041 35.3191 39.7161C35.1388 37.6476 29.3183 38.8919 29.7523 34.9176Z" fill="white"/>
<path d="M43.75 47.75H10.5V49.5H43.75C44.7125 49.5 45.5 48.7125 45.5 47.75V46C45.5 46.9625 44.7125 47.75 43.75 47.75Z" fill="#CAD1D8"/>
</g>
<defs>
<clipPath id="clip0_3138_93740">
<rect width="56" height="56" fill="white" transform="translate(0 0.5)"/>
</clipPath>
</defs>
</svg>
